<svg xmlns="http://www.w3.org/2000/svg" xmlns:xlink="http://www.w3.org/1999/xlink" width="762.063" height="110.129" viewBox="0 0 762.063 110.129">
  <defs>
    <linearGradient id="linear-gradient" x1="0.5" x2="0.5" y2="1" gradientUnits="objectBoundingBox">
      <stop offset="0" stop-color="#ea7652"/>
      <stop offset="1" stop-color="#ffad93"/>
    </linearGradient>
    <linearGradient id="linear-gradient-22" x1="-0.168" y1="1.496" x2="0.552" y2="0.296" gradientUnits="objectBoundingBox">
      <stop offset="0" stop-color="#ed7d5b"/>
      <stop offset="1" stop-color="#ffad93"/>
    </linearGradient>
    <linearGradient id="linear-gradient-23" x1="0.121" y1="0.806" x2="0.506" y2="0.539" xlink:href="#linear-gradient-22"/>
    <linearGradient id="linear-gradient-30" x1="-0.034" y1="-0.225" x2="0.75" y2="0.377" xlink:href="#linear-gradient-22"/>
  </defs>
  <g id="Group_85" data-name="Group 85" transform="translate(-578.97 -4442.021)">
    <path id="Path_410" data-name="Path 410" d="M-306.25-61.875v-17.75a12.457,12.457,0,0,0-12.5-12.5H-354a12.351,12.351,0,0,0-12.375,12.5V-12.5A12.43,12.43,0,0,0-354,0h35.25a12.537,12.537,0,0,0,12.5-12.5V-30.25h-21.125V-21h-18V-71.125h18v9.25Zm57.625-30.375h-35.25a12.43,12.43,0,0,0-12.375,12.5V-12.5A12.43,12.43,0,0,0-283.875,0h35.25a12.537,12.537,0,0,0,12.5-12.5V-79.75A12.537,12.537,0,0,0-248.625-92.25Zm-8.5,71.125H-275.25v-50h18.125ZM-205-21V-92.125h-21.125V-12.5A12.537,12.537,0,0,0-213.625,0h47.75V-21Zm70.25,0V-92.125h-21.125V-12.5A12.537,12.537,0,0,0-143.375,0h47.75V-21Zm70.25,0v-9.375a5.176,5.176,0,0,1,5.125-5.25h16.25v-21h-16.25a5.1,5.1,0,0,1-5.125-5.25v-9.25l39.125-.375V-92.125h-47.75a12.457,12.457,0,0,0-12.5,12.5v7.375a36.748,36.748,0,0,0,7.25,21.875,22.817,22.817,0,0,0-7.25,16.625V-12.5A12.537,12.537,0,0,0-73.125,0h47.75V-21ZM44.75-61.875v-17.75a12.457,12.457,0,0,0-12.5-12.5H-3a12.351,12.351,0,0,0-12.375,12.5V-12.5A12.43,12.43,0,0,0-3,0H32.25a12.537,12.537,0,0,0,12.5-12.5V-30.25H23.625V-21h-18V-71.125h18v9.25Zm70-30.375h-60v21h19.5V0H95.375V-71.25H114.75ZM156-71.125v-21H124.75v21h5.125V-21H124.75V0H156V-21h-5.125V-71.125ZM213.625-92.25h-35.25A12.43,12.43,0,0,0,166-79.75V-12.5A12.43,12.43,0,0,0,178.375,0h35.25a12.537,12.537,0,0,0,12.5-12.5V-79.75A12.537,12.537,0,0,0,213.625-92.25Zm-8.5,71.125H187v-50h18.125ZM275.25-92.25v18l-18.125-18h-21V0h21V-65.125l13.25,13.375a16.733,16.733,0,0,1,4.875,11.875V0h21V-92.25ZM354-56.625H327.25V-71.25h39.125v-21H318.75a12.537,12.537,0,0,0-12.5,12.5v31.625a12.537,12.537,0,0,0,12.5,12.5h26.625v14.5H306.25V0H354a12.43,12.43,0,0,0,12.375-12.5V-44.125A12.351,12.351,0,0,0,354-56.625Z" transform="translate(960 4550)" fill="#ffad93"/>
    <path id="Path_286" data-name="Path 286" d="M21706.361,2925.985l-.061,14.866h-7.83l-11.109-14.866Z" transform="translate(-21013.768 1538)" fill="url(#linear-gradient)"/>
    <path id="Path_288" data-name="Path 288" d="M21707.264,2926.652l12.018,14.44h-20.865l-13.109-14.44Z" transform="translate(-21065.768 1547)" fill="url(#linear-gradient)"/>
    <path id="Path_409" data-name="Path 409" d="M-318.5-64.35V-82.81a12.955,12.955,0,0,0-13-13h-36.66a12.845,12.845,0,0,0-12.87,13V-13A12.927,12.927,0,0,0-368.16,0h36.66a13.038,13.038,0,0,0,13-13V-31.46h-21.97v9.62h-18.72V-73.97h18.72v9.62Zm59.93-31.59h-36.66a12.927,12.927,0,0,0-12.87,13V-13A12.927,12.927,0,0,0-295.23,0h36.66a13.038,13.038,0,0,0,13-13V-82.94A13.038,13.038,0,0,0-258.57-95.94Zm-8.84,73.97h-18.85v-52h18.85Zm54.21.13V-95.81h-21.97V-13a13.038,13.038,0,0,0,13,13h49.66V-21.84Zm73.06,0V-95.81h-21.97V-13a13.038,13.038,0,0,0,13,13h49.66V-21.84Zm73.06,0v-9.75a5.383,5.383,0,0,1,5.33-5.46h16.9V-58.89h-16.9a5.3,5.3,0,0,1-5.33-5.46v-9.62l40.69-.39V-95.81H-76.05a12.955,12.955,0,0,0-13,13v7.67a38.218,38.218,0,0,0,7.54,22.75A23.73,23.73,0,0,0-89.05-35.1V-13a13.038,13.038,0,0,0,13,13h49.66V-21.84ZM46.54-64.35V-82.81a12.955,12.955,0,0,0-13-13H-3.12a12.845,12.845,0,0,0-12.87,13V-13A12.927,12.927,0,0,0-3.12,0H33.54a13.038,13.038,0,0,0,13-13V-31.46H24.57v9.62H5.85V-73.97H24.57v9.62Zm72.8-31.59H56.94V-74.1H77.22V0H99.19V-74.1h20.15Zm42.9,21.97V-95.81h-32.5v21.84h5.33v52.13h-5.33V0h32.5V-21.84h-5.33V-73.97Zm59.93-21.97H185.51a12.927,12.927,0,0,0-12.87,13V-13A12.927,12.927,0,0,0,185.51,0h36.66a13.038,13.038,0,0,0,13-13V-82.94A13.038,13.038,0,0,0,222.17-95.94Zm-8.84,73.97H194.48v-52h18.85Zm72.93-73.97v18.72L267.41-95.94H245.57V0h21.84V-67.73l13.78,13.91a17.4,17.4,0,0,1,5.07,12.35V0H308.1V-95.94Zm81.9,37.05H340.34V-74.1h40.69V-95.94H331.5a13.038,13.038,0,0,0-13,13v32.89a13.038,13.038,0,0,0,13,13h27.69v15.08H318.5V0h49.66a12.927,12.927,0,0,0,12.87-13V-45.89A12.845,12.845,0,0,0,368.16-58.89Z" transform="translate(960 4538)" fill="#eb5729"/>
    <path id="Path_289" data-name="Path 289" d="M21717.166,2923.891l-14.641,14.822h-26.082v-14.855Z" transform="translate(-20376.133 1540)" fill="url(#linear-gradient)"/>
    <path id="Path_290" data-name="Path 290" d="M21709.256,2922.946l-11.873,12.027h-21.035l11.027-12.027Z" transform="translate(-20441.133 1615)" fill="url(#linear-gradient)"/>
    <path id="Path_291" data-name="Path 291" d="M21709.549,2922.946l-10.326,12.027h-21l9.5-12.027Z" transform="translate(-20482.133 1615)" fill="url(#linear-gradient)"/>
    <path id="Path_292" data-name="Path 292" d="M21709.365,2922.946l-6.236,12.027h-31.209l4.961-12.027Z" transform="translate(-20587.133 1615)" fill="url(#linear-gradient)"/>
    <path id="Path_293" data-name="Path 293" d="M21709.438,2923.016l-8.133,14.816h-10.645l-.078-14.818Z" transform="translate(-20536.133 1541)" fill="url(#linear-gradient)"/>
    <path id="Path_294" data-name="Path 294" d="M21709.2,2922.025l-5.172,14.825h-5.143l4.994-14.825Z" transform="translate(-20614.133 1542)" fill="url(#linear-gradient)"/>
    <path id="Path_295" data-name="Path 295" d="M21709.363,2921.886l-2.926,14.965h-19.531l2.121-14.965Z" transform="translate(-20672.133 1542)" fill="url(#linear-gradient)"/>
    <path id="Path_296" data-name="Path 296" d="M21709.484,2921.886l-4.6,14.813h-15.562v-14.813Z" transform="translate(-20630.133 1542)" fill="url(#linear-gradient)"/>
    <path id="Path_297" data-name="Path 297" d="M21709.971,2921.886l-3.836,12.035h-21.084l2.967-12.035Z" transform="translate(-20650.793 1616.061)" fill="url(#linear-gradient)"/>
    <path id="Path_298" data-name="Path 298" d="M21710.3,2921.574l-1.76,14.423-21.123.105.076-1.169.873-13.359Z" transform="translate(-20703.793 1552.061)" fill="url(#linear-gradient)"/>
    <path id="Path_299" data-name="Path 299" d="M21710.279,2921.931l-1.01,14.845h-17.738v-14.845Z" transform="translate(-20725.676 1542.061)" fill="url(#linear-gradient)"/>
    <path id="Path_300" data-name="Path 300" d="M-1397.912,9825.812l9.473-15.733v16.364Z" transform="translate(2594 -5368)" fill="#ffad93"/>
    <path id="Path_301" data-name="Path 301" d="M-1393.182,9825.93l5.012-15.758v16.064Z" transform="translate(2477.928 -5368)" fill="#ffad93"/>
    <path id="Path_302" data-name="Path 302" d="M-1390.2,9825.78l2.225-15.732,0,16.114Z" transform="translate(2404.928 -5368)" fill="#ffad93"/>
    <path id="Path_303" data-name="Path 303" d="M21709.313,2922.025l-5.285,14.825.021-14.825Z" transform="translate(-20587.133 1542)" fill="url(#linear-gradient)"/>
    <path id="Path_304" data-name="Path 304" d="M-1398.844,9821.586l10.424-11.59v13.642h-10.424Z" transform="translate(2666.928 -5294)" fill="#ffad93"/>
    <path id="Path_305" data-name="Path 305" d="M-1392.268,9826.059l-1.037-15.881v15.881Z" transform="translate(2326.928 -5368)" fill="#ffad93"/>
    <path id="Path_306" data-name="Path 306" d="M-1387.673,9826.059l-5.41-15.872v15.872Z" transform="translate(2212.928 -5368)" fill="#ffad93"/>
    <path id="Path_307" data-name="Path 307" d="M-1384.912,9825.92l-8.23-15.72.059,15.832Z" transform="translate(2139.928 -5368)" fill="#ffad93"/>
    <path id="Path_308" data-name="Path 308" d="M-1385.33,9825.813l-10.064-16.386a13.73,13.73,0,0,1,1.909,7.477c-.051,4.646,0,9.229,0,9.229Z" transform="translate(2107.928 -5361.084)" fill="#ffad93"/>
    <path id="Path_309" data-name="Path 309" d="M-1385.146,9823.372l-11.472-14.348a14.642,14.642,0,0,1,2.158,7.846,82.084,82.084,0,0,0,.5,9.275Z" transform="translate(2035.928 -5361.084)" fill="#ffad93"/>
    <path id="Path_310" data-name="Path 310" d="M-1388.016,9815.071l-10.431-10.468-.026,14.831h10.457Z" transform="translate(2039.928 -5298.084)" fill="#ffad93"/>
    <path id="Path_287" data-name="Path 287" d="M21707.311,2926.021v9.631l4.527,5.055-9.479.214-13.818-14.936Z" transform="translate(-21087.768 1538)" fill="url(#linear-gradient)"/>
    <path id="Path_311" data-name="Path 311" d="M21711.838,2920.573l.945,14.956-37.9.343a5.78,5.78,0,0,1-2.576-1.748,7.9,7.9,0,0,1-1.2-3.222v-9.921Z" transform="translate(-20778.215 1543)" fill="url(#linear-gradient)"/>
    <path id="Path_312" data-name="Path 312" d="M-1392.07,9825.418l-1.72-14.343v14.343Z" transform="translate(2308.928 -5332)" fill="#ffad93"/>
    <path id="Path_313" data-name="Path 313" d="M21714.355,2918.932l1.725,13.464h-16.721s-.146-.15-1.975.575-1.49,1.181-1.49,1.181h-3.75v-10.315a5.315,5.315,0,0,1,1.738-3.474,5.441,5.441,0,0,1,3.686-1.431Z" transform="translate(-20799.215 1582)" fill="url(#linear-gradient)"/>
    <path id="Path_314" data-name="Path 314" d="M-1393.312,9823.958l-1.031-12.861.012,14.321Z" transform="translate(2327.928 -5294.924)" fill="#ffad93"/>
    <path id="Path_315" data-name="Path 315" d="M-1390.539,9823.968l-3.873-12.905.013,2.372v10.533Z" transform="translate(2254.928 -5294.945)" fill="#ffad93"/>
    <path id="Path_316" data-name="Path 316" d="M-1387.79,9823.968l-6.622-12.9v12.9Z" transform="translate(2181.928 -5294.945)" fill="#ffad93"/>
    <path id="Path_317" data-name="Path 317" d="M-1391.541,9820.563a40.321,40.321,0,0,1-1.759-4.7c-.792-2.614-1.407-5.753-1.407-5.753l4.053,17.473Z" transform="translate(2265.928 -5341.945)" fill="#ffad93"/>
    <path id="Path_318" data-name="Path 318" d="M-1394.514,9811.345a29.55,29.55,0,0,0,1.449,3.241,10.994,10.994,0,0,0,1.522,2.155l.754,8.092Z" transform="translate(2265.928 -5282.945)" fill="#ffad93"/>
    <path id="Path_319" data-name="Path 319" d="M-1390.907,9810.8a17.228,17.228,0,0,1-1.232,3.94c-.743,1.35-1.451,2.721-1.451,2.721l.771,6.3Z" transform="translate(2397.298 -5283.945)" fill="#ffad93"/>
    <path id="Path_320" data-name="Path 320" d="M-1393.2,9810.427a17.33,17.33,0,0,0,.905,3.422,16.074,16.074,0,0,0,1.635,2.991l-1.965,5.953Z" transform="translate(2337.298 -5283.945)" fill="#ffad93"/>
    <path id="Path_321" data-name="Path 321" d="M21703.836,2919.825a32.432,32.432,0,0,1,3.412,4.416c1.2,2.027,1.871,6.561,1.871,6.561h-18.771v-24.615Z" transform="translate(-20462.92 1564)" fill="url(#linear-gradient)"/>
    <path id="Path_322" data-name="Path 322" d="M-1398,9819.586l9.56-9.508v18.691Z" transform="translate(2634.726 -5368.056)" fill="#ffad93"/>
    <path id="Path_323" data-name="Path 323" d="M21710.3,2923.325l-13.812,13.566h-26.3l6.729-14.821a13.98,13.98,0,0,0,4.793,1.255C21684.58,2923.577,21710.3,2923.325,21710.3,2923.325Z" transform="translate(-20391.133 1577.54)" fill="url(#linear-gradient)"/>
    <path id="Path_324" data-name="Path 324" d="M-1399.768,9825.561l12.448-15.65a14.334,14.334,0,0,0-2.394,4.822,22.658,22.658,0,0,0-.486,6.086Z" transform="translate(2668.726 -5363.056)" fill="#ffad93"/>
    <path id="Path_325" data-name="Path 325" d="M-1395.542,9827.93l6.642-15.254a9.47,9.47,0,0,0-1.005,3.9c-.242,2.684-.179,6.016-.179,6.016Z" transform="translate(2522.726 -5363.056)" fill="#ffad93"/>
    <path id="Path_326" data-name="Path 326" d="M21736.93,2922.946a12.134,12.134,0,0,0,5.041-.878,17.851,17.851,0,0,0,4.457-2.8l-14.9,12.586a15.514,15.514,0,0,1-3.031,1.963,20.017,20.017,0,0,1-4.566,1.182l-48.439-.026,12.236-12.027Z" transform="translate(-20409.238 1615)" fill="url(#linear-gradient)"/>
    <path id="Path_327" data-name="Path 327" d="M21731.529,2922.946a11.152,11.152,0,0,0,5.639-1.529,18.358,18.358,0,0,0,5.264-4.507s-9.826,14.007-10.9,14.945a9.8,9.8,0,0,1-3.031,1.963,20.017,20.017,0,0,1-4.566,1.182h-36.2l5.143-12.054Z" transform="translate(-20549.238 1614.974)" fill="url(#linear-gradient)"/>
    <path id="Path_328" data-name="Path 328" d="M11.14,7.748a18.324,18.324,0,0,1,5.026,1.857L13.353-.41,11.325-3.1,6.717-6.147A16.535,16.535,0,0,0,1.93-4.929,13.862,13.862,0,0,0-.2-3.536L2.6,9.366A15.717,15.717,0,0,1,6.28,7.908,12.245,12.245,0,0,1,11.14,7.748Z" transform="matrix(-0.799, -0.602, 0.602, -0.799, 1140.537, 4546.981)" fill="url(#linear-gradient-22)"/>
    <path id="Path_329" data-name="Path 329" d="M10.368,9.254a14.892,14.892,0,0,1,4.432,2.2L16.275-2.98,11.325-3.1,8.759-8.661s-4.526-.057-6.52.906A17.634,17.634,0,0,0-.274-6.042L2.843,9.39A12.327,12.327,0,0,1,6.616,8.7C8.667,8.674,8.493,8.891,10.368,9.254Z" transform="matrix(-0.799, -0.602, 0.602, -0.799, 1283.84, 4509.398)" fill="url(#linear-gradient-23)"/>
    <path id="Path_330" data-name="Path 330" d="M-1393.24,9823.079l5.069-12.907v16.064Z" transform="translate(2477.928 -5294)" fill="#ffad93"/>
    <path id="Path_331" data-name="Path 331" d="M21731.529,2922.946a11.152,11.152,0,0,0,5.639-1.529c3.166-1.72,6.564-9.155,6.564-9.155l-1.445,10.437s-.252,5.911-4.205,9.144a14.314,14.314,0,0,1-7.939,3.33h-6.057l-30.162-.051s-5.742-1.253-8.73-4.157-3.227-7.46-3.227-7.46l-.475-11.541s.811,5.036,4.35,8.051a13,13,0,0,0,7.557,3.06Z" transform="translate(-20737.383 1614.843)" fill="url(#linear-gradient)"/>
    <path id="Path_332" data-name="Path 332" d="M21731.529,2922.946l9.422.127,1.033,12.048-11.842.051h-6.057l-30.162-.051s-5.742-1.253-8.73-4.157a15.658,15.658,0,0,1-3.844-7.341l-2.514-10.208a16.689,16.689,0,0,0,4.764,7.1c3.539,3.015,9.8,2.559,9.8,2.559Z" transform="translate(-20807.383 1614.889)" fill="url(#linear-gradient)"/>
    <path id="Path_333" data-name="Path 333" d="M21731.529,2922.946l9.422.127,3.75,12.048-14.559.051h-6.057l-27.633-.047s-1.662.033-2.529,0a17.833,17.833,0,0,1-8.73-4.157c-2.988-2.9-3.359-5.193-3.973-7.17,0,0-2.463-10.128-2.463-10.128a17.387,17.387,0,0,0,4.842,6.849c3.539,3.015,9.8,2.559,9.8,2.559Z" transform="translate(-20880.383 1614.889)" fill="url(#linear-gradient)"/>
    <path id="Path_334" data-name="Path 334" d="M21731.529,2922.946l9.422.127,6.539,12.048-17.348.051h-6.057l-27.633-.047s-1.662.033-2.529,0-4.551-.023-8.059-4.207-2.754-4.475-3.809-7.021c0,0-3.3-10.228-3.3-10.228a17.387,17.387,0,0,0,4.842,6.849c3.539,3.015,9.8,2.559,9.8,2.559Z" transform="translate(-20953.383 1614.889)" fill="url(#linear-gradient)"/>
    <path id="Path_335" data-name="Path 335" d="M21727.629,2923.073a15.222,15.222,0,0,0,4.84-1.394,19.412,19.412,0,0,0,4.346-3.252l11.877,12.769a12.26,12.26,0,0,1-3.371,2.663,15.178,15.178,0,0,1-4.412,1.262l-10.766.051h-6.057l-20.008-.051a20.286,20.286,0,0,1-8.109-3.316c-3.424-2.606-13.012-10.931-13.012-10.931a12.667,12.667,0,0,0,6.17,2.032c3.512.145,4.271.167,4.271.167Z" transform="translate(-21098.383 1614.889)" fill="url(#linear-gradient)"/>
    <path id="Path_336" data-name="Path 336" d="M21727.629,2923.073a15.222,15.222,0,0,0,4.84-1.394,13.173,13.173,0,0,0,3.938-3.3l10.568,11.07a8.647,8.647,0,0,1-3.158,3.3,61.348,61.348,0,0,1-6.229,2.364l-7.445.051h-6.057l-20.008-.051s-6.51.242-9.932-2.364-13-13.21-13-13.21,5.094,3.135,7.982,3.359a40.535,40.535,0,0,0,4.271.167Z" transform="translate(-21025.094 1614.889)" fill="url(#linear-gradient)"/>
    <path id="Path_337" data-name="Path 337" d="M10.279-.333a17.718,17.718,0,0,0,3.378-2.348l2.451,12.807a21.034,21.034,0,0,1-3.729,3.931c-2.039,1.553-2.126,1.773-4.426,2.281s-2.6.265-4.751-.1a17.924,17.924,0,0,1-4.63-1.709L2.152.666A27.083,27.083,0,0,0,6.9.639,6.606,6.606,0,0,0,10.279-.333Z" transform="matrix(0.799, -0.602, 0.602, 0.799, 704.927, 4537.479)" fill="url(#linear-gradient-30)"/>
    <path id="Path_338" data-name="Path 338" d="M13.036-4.029l3.072,14.154a21.034,21.034,0,0,1-3.729,3.931c-2.039,1.553-1.944,2.494-4.244,3s-3.237.09-5.388-.271a9.668,9.668,0,0,1-4.175-2.256L1.992-.144A17.814,17.814,0,0,0,7.029-.481C10.15-1.065,13.036-4.029,13.036-4.029Z" transform="matrix(0.799, -0.602, 0.602, 0.799, 633.396, 4537.479)" fill="url(#linear-gradient-30)"/>
  </g>
</svg>
