<svg xmlns="http://www.w3.org/2000/svg" width="2206.941" height="1840.142" viewBox="0 0 2206.941 1840.142">
  <g id="Collection_bg_bottom" data-name="Collection bg bottom" transform="translate(206.708 -5661.857)">
    <path id="Path_181" data-name="Path 181" d="M-1.223,1633.374H1999.394v608.349l-74.618,561.247S545.879,3235.44,561.688,3214.187c58.415-63.158-19.878-55.227-38.069-64.229-26.217-12.973-70.351,44.152-77.409,27.64-23.023-53.862-107.985,1.089-168.9-22.257-5.592-2.143-29.291-12.723-24.395-32.049,3.521-13.9,35.747-35.521,34.557-47.177-2.459-24.105-21.486-12.181-30.07-14.456-8.685-2.3-46.533,5.448-68.48,19.145-9.54,5.954-1.553,16.521-11.356,22.164-12.155,7-20.106,5.766-31.6,7.562a72.782,72.782,0,0,0-30.75,12.763s18.637-29.4,37.065-47.177c7.592-7.323,18.734-4.2,25.29-6.82a17.833,17.833,0,0,0,11.356-17.1c-.134-6.292-36.646-22.944-36.646-22.944l-18.953-38.417L48.5,2962.673l-49.721,66.581Z" transform="translate(0 4028.483)" fill="#fffae6"/>
    <g id="fgd">
      <path id="Path_229" data-name="Path 229" d="M1245,1731.211s-25.991-15.186-46.835-33.207-21.123-23.065-36.54-38.874-13.287-17.541-25.13-24.359-17.976-3.845-22.241-2.915-28.47,5.8-43.358-2.542-12.924-19.8-16.372-27.305-16.916-20.845-38.714-14.5-28.371,26.888-31.135,34.2-14.893,23.245-39.222,19.693-63.5-34.524-65.922-72.847,23.591-65.365,23.591-65.365,25.719-34.622,17-52.5-20.527-19.161-37.073-16.13-12.765,26.465-38.75,26.956-38.514-15.936-38.514-15.936-26.782,39.651-55.878,42.037-51.937,9.136-91.9-3.369-60.1-49.688-60.1-49.688-29.935,1.72-46.406,4.156-33.205-12.082-41.241,0,10.917,28.665,28.419,26.01,23.966,20.32,22.919,33.063-19.8,11.123-24.136,18.6.728,12.048,5.909,14.872,6.843.713,14.815-3.582,19-5.943,34.6-2.723,20.086,6.3,26.41,16.727,1.722,18.236,10.671,28.117,23.42,9.811,37.322,17.713,21.066,15.8,23.85,33.749,4.69,25.528,16.7,35.555,28.476,14.25,37.8,22.5,7.884,17.329,19.523,28.164,51.972,41.941,51.972,41.941-55.426-30.1-68.923-40.422-12.564-12.41-22.023-18.255-13.367-5.226-19.547-4.851-13.814.345-19.883-2.969-22.215-18.933-25.794-29.838.1-15.306-6.363-22.934-14.127-7.333-19.5-7.575-4.965.438-17.85,6.215-19.807-9.264-23.126-15.583-3-20.988-8.778-22.967-14.962-.36-17.814,6.452-3.034,15.892,0,24.562,7.392,9.985,16.924,12.56,24.35,15.555,32.794,28.15,14.109,32.358,12.5,47.034-5.064,25.545-15.231,37.642-27.233,13.369-34.268,13.359-15.56-1.356-19.288,9.26.668,20.06,6.571,26.123,18.874,10.96,30.475,12.047,19.073,4.27,28.307,14.269-1.786,30.058-1.786,30.058,6.43,19,23.063,26.25,20.881.266,23.649-4.06,4.607-16.772,0-25.291-14.431-15.54-18.882-26.957,2.456-20.894,9.6-26.751,20.7,1.532,26.9-3.638.516-13.19-2.1-17.04-15.237-11.883-22.246-19.214-18.148-24.182-18.148-24.182,17.749,22.5,42.5,33.182,25.605,10,41.456,21.615,15.483,16.975,15.908,21.758-4.781,10.095-10.55,10.667-12.514-1.842-20.7,0-9.008,8.658-7.132,17.953,6.482,12.847,15.438,18.438,18.334,3.852,30.8,10,21.706,15.287,31.717,29.044,8.635,23.141,5.231,31.534-24.806,8.236-24.806,8.236,2.342,10.493,12.831,20.774,32.9,2.034,30.146,29.225,21.072,52.182,21.072,52.182-18.672-13.812-32.857-22.605-17.709-23.97-32.253-26.65-31.56-1.058-40.016,7.129-11.781,15.565-13.393,27.35,19.854,17.526,23.831,34.71-4.57,20.051-7.926,34.023-17.1,19.6-19.82,30.115-4.327,12.83,0,22.643,12.624,8.291,17.308,16.61,2.768,8.954,1.428,21.133,7.85,27,7.85,27-12.67-17.1-26.586-28.55-23.771-1.879-33.185-16.824,4.271-21.97-8.031-36.516-20.183-27.22-52.388-28.078-42.932,16.278-71.811,19.148-31.393,18.671-52.639,17.747-37.98-7.942-60.979-32.607-30.667-38.251-31.018-66.05,21.2-31.913,27.959-46.259,3.606-27.376-4.631-35.444-26.916-2.483-26.916-2.483,7.514,3.962,10.127,11.006c2.129,5.736-.149,14.45-6.54,17.165-13.6,5.775-22.841-9.988-32.973-7.523s-16.006,11.627-16.006,11.627l-37.949-313.1,37.949,41.742s36.351,12.544,52.967,33.42,21.22,34.872,19.3,58.751-25.095,32.325-25.095,32.325,8.049,11.888,17.968,7.62,26.187-8.333,43.365-2.161c13.44,6.912,9.549,17.89,13.064,21.234,7.792,7.411,14.941,4.911,14.941,4.911s-13.75-23.93-5.887-37.321,24.367-37.419,21.018-57.293-18.315-20.8-32.53-23.471-28.148-6.128-43.539-24.062-25.837-53.42-13.916-70,45.281-.839,53.831-13.206-7.4-23.757-13.487-39.062-7.756-23.442-7.756-23.442a93.1,93.1,0,0,0,16.9,28c12.138,13.942,27.845,18.57,34.892,28.276s.581,21.359,5.609,20.535,18.042-9.726,15.655-25.521-23.673-35.446-29.665-41.566-14.849-9.873-23.881-33.436-6.216-54.47-12.624-63.208-9.985-18.865-24.979-22.15-27.111,4.8-38.641,0-20.617-21.367-20.617-21.367-7.283,15.054-3.843,37.628,19.647,30.777,21.7,51.446-12.76,22-10.94,39.339,11.267,11.078,19.854,26.466A279.024,279.024,0,0,0,408.3,1630.11s-16.937-21.737-28.474-26.486-23.234-7.177-29.543-26.165c-3.187-9.589,1.967-25.16,1.9-35.478-.062-9.614-3.771-31.157-11.893-40.745s-77.525-55.071-87.012-193.16c-1.706-24.838,11.7-82.324,45.084-124.088,31.69-39.65,83.269-63.572,87.852-88.9,17.194-95-27.469-28.232-75.456-119.773-15.98-30.483-71.857-56.908-75.969-94.539-8.172-74.785,48.39-158.387,48.39-158.387S119.255,704.064,83.539,611.772C-4.388,384.567.037.864.037.864S450.368-9.258,617.157,39.782s50.036,157.24,50.036,157.24,52.144-23.7,86.792,37.76c15.072,26.733-46.255,79.106-39.111,119.157,9.187,51.507,82.821,91.881,64.084,128.325-33.163,64.5-52.163,92.121-13.893,101.013,19.284,4.48,76.5-.671,88.918-25.924s-41.519-35.171-39.234-75.089c.733-12.809,19.758-8.739,21.992-20.218,6.55-33.646,0-74.3,0-74.3s4.884,14.137,33.21,45.908c7.691,8.627,25.44,7.259,39.453,16.6,17.719,11.813,31.691,34.3,36.047,44.629,30.643,72.955,3.455,43.277,0,71.463-1.476,12.041,23.675,27.882,30.465,53.2,3.582,13.359.491,20,0,33.217-.684,18.4,17.1,48,17.1,48s-17.12-5.118-27.62-18.756c-7.394-9.6-7.759-26.88-12.9-34.775-11.177-17.181-23.245-25.067-27.211-27.689-6.241-3.3-31.67-9.842-54.438-2.641-14.463,4.574-27.921,15-34.106,35.858-15.7,52.946,21.822,91.119,23.494,114.376.751,10.443,30.081,6.056,59.888,14.354,31.941,8.892,58.218,11.138,64.55,40.2s-41.322,62.649-39.222,76.033c4.326,27.567,42.768,28.35,70.357,54.975,16.441,15.867,21.617,55.927,33.862,75.348,32.4,51.378,68.478,16.846,64.583-6.3s-53.739-83.205-53.739-83.205,35.949,31.588,57.955,36.781c15.474,3.652,27.4,5.3,34.888,12.4,21.992,20.826,22.85,52.117,8.267,74.047-5.249,7.894-13.292,33.072-8.267,54.385,5.676,24.076,24.567,44.571,16.89,53.262-17.624,19.954-63.814-14.856-68.289,0-16.214,53.827,29.645,80.939,29.645,80.939s36.794,4.553,47.645,31.658,51.619,66.38,51.619,66.38-40.559-26.795-60.62-19.253-19.674,25.759-51.778,23.843-12.5-54.037-34.159-61.4-52.479,31.944-52.479,31.944-.995,17.064-9.459,22.752-19.818-1.977-26.945,2.115-7.278,12.745,0,20.348,20.134,2.977,34.951,19.433,21.642,31.858,24.321,46.394,2.51,27.105-5.029,41.881-21.285,7.506-25.209,16.9.775,17.239,8.546,20.679,24.144-2.112,38.42,5.1,14.846,16.872,18.876,29.015,8.84,24.757,18.628,33.155,25.049,3.777,44.426,17.176,18.86,31.971,25.892,50.125,65.75,82.613,65.75,82.613" transform="translate(2000.234 6257) rotate(90)" fill="#fffae6"/>
      <g id="Group_47" data-name="Group 47" transform="translate(1123.703 -4817.814)">
        <path id="Path_344" data-name="Path 344" d="M22206.061,776.73c21.977,6.567,26.711-23.664,57.889-19.018s22.641,27.916,50.246,31.126,22.572-4.854,46.172-12.108,39.043,16.4,53.264,0,14.445-22.5,11.549-35.539-22.1-19.9-25.529-41.768-1.893-27.561,5.992-45.857,10.193-16.7,21.52-27.326,26.732-14.436,26.732-14.436-37.766-5.582-64.916,0-24.99,5.637-43.686,22.329-8.365,33.331-31.1,44.442-39.518,16.693-59.832,0,14.795-48.157-5.4-61.241-50.879,1.632-75.375,8.906-38.631,14.659-38.631,14.659,31.967,26.414,47.746,48.392,13.682,16.481,15.375,39.519S22184.084,770.162,22206.061,776.73Z" transform="translate(-22583 11298.984)" fill="#d5d5d5"/>
        <line id="Line_357" data-name="Line 357" x1="74" y1="74" transform="translate(-411.5 12018.484)" fill="none" stroke="#fffae6" stroke-width="5"/>
        <line id="Line_358" data-name="Line 358" x1="65" y1="65" transform="translate(-415.5 12030.484)" fill="none" stroke="#fffae6" stroke-width="5"/>
        <line id="Line_359" data-name="Line 359" x1="153.203" y1="153.698" transform="translate(-459.703 11923.785)" fill="none" stroke="#fffae6" stroke-width="5"/>
        <line id="Line_360" data-name="Line 360" x1="83" y1="83" transform="translate(-397.5 12001.484)" fill="none" stroke="#fffae6" stroke-width="5"/>
        <line id="Line_361" data-name="Line 361" x1="77" y1="77" transform="translate(-404.5 12010.484)" fill="none" stroke="#fffae6" stroke-width="5"/>
        <line id="Line_362" data-name="Line 362" x1="223.867" y1="223.033" transform="translate(-436.367 11900.451)" fill="none" stroke="#fffae6" stroke-width="5"/>
        <line id="Line_363" data-name="Line 363" x1="193.646" y1="194.255" transform="translate(-444.146 11908.229)" fill="none" stroke="#fffae6" stroke-width="5"/>
        <line id="Line_364" data-name="Line 364" x1="180.424" y1="180.477" transform="translate(-451.924 11916.008)" fill="none" stroke="#fffae6" stroke-width="5"/>
        <line id="Line_365" data-name="Line 365" y1="332.118" transform="translate(-413.033 11877.117) rotate(-45)" fill="none" stroke="#fffae6" stroke-width="5"/>
        <line id="Line_366" data-name="Line 366" y1="332.118" transform="translate(-420.812 11884.895) rotate(-45)" fill="none" stroke="#fffae6" stroke-width="5"/>
        <line id="Line_367" data-name="Line 367" y1="332.118" transform="translate(-428.59 11892.674) rotate(-45)" fill="none" stroke="#fffae6" stroke-width="5"/>
        <line id="Line_368" data-name="Line 368" x1="140.644" y1="141.141" transform="translate(-295.5 11947.484)" fill="none" stroke="#fffae6" stroke-width="5"/>
        <line id="Line_369" data-name="Line 369" x1="198.867" y1="198.919" transform="translate(-361.5 11897.484)" fill="none" stroke="#fffae6" stroke-width="5"/>
        <line id="Line_370" data-name="Line 370" x1="213.087" y1="212.697" transform="translate(-383.5 11891.484)" fill="none" stroke="#fffae6" stroke-width="5"/>
        <line id="Line_371" data-name="Line 371" x1="148.978" y1="148.806" transform="translate(-280.5 11916.484)" fill="none" stroke="#fffae6" stroke-width="5"/>
        <line id="Line_372" data-name="Line 372" x1="148.201" y1="148.585" transform="translate(-287.5 11924.484)" fill="none" stroke="#fffae6" stroke-width="5"/>
        <line id="Line_373" data-name="Line 373" x1="141.423" y1="141.363" transform="translate(-288.5 11939.484)" fill="none" stroke="#fffae6" stroke-width="5"/>
        <line id="Line_374" data-name="Line 374" x1="126" y1="126" transform="translate(-284.5 11866.484)" fill="none" stroke="#fffae6" stroke-width="5"/>
        <line id="Line_375" data-name="Line 375" x1="150" y1="150" transform="translate(-281.5 11884.484)" fill="none" stroke="#fffae6" stroke-width="5"/>
        <line id="Line_376" data-name="Line 376" x1="148.757" y1="149.028" transform="translate(-272.5 11908.484)" fill="none" stroke="#fffae6" stroke-width="5"/>
        <line id="Line_377" data-name="Line 377" x1="110" y1="110" transform="translate(-265.5 11837.484)" fill="none" stroke="#fffae6" stroke-width="5"/>
        <line id="Line_378" data-name="Line 378" x1="102" y1="102" transform="translate(-256.5 11862.484)" fill="none" stroke="#fffae6" stroke-width="5"/>
        <line id="Line_379" data-name="Line 379" x1="92" y1="92" transform="translate(-250.5 11884.484)" fill="none" stroke="#fffae6" stroke-width="5"/>
        <line id="Line_380" data-name="Line 380" x1="69" y1="69" transform="translate(-170.5 11886.484)" fill="none" stroke="#fffae6" stroke-width="5"/>
        <line id="Line_381" data-name="Line 381" x1="58" y1="58" transform="translate(-189.5 11882.484)" fill="none" stroke="#fffae6" stroke-width="5"/>
        <line id="Line_382" data-name="Line 382" x1="102" y1="102" transform="translate(-238.5 11849.484)" fill="none" stroke="#fffae6" stroke-width="5"/>
        <line id="Line_383" data-name="Line 383" x1="57" y1="57" transform="translate(-158.5 11882.484)" fill="none" stroke="#fffae6" stroke-width="5"/>
      </g>
      <g id="Group_46" data-name="Group 46" transform="translate(46.772 -149.776)">
        <path id="Path_342" data-name="Path 342" d="M-2645.943,9425.6s62.943-44.754,101.282-90.758,23.743-58.574,46.779-81.889,39.68-9.332,55.3-2.99,24.387,13.32,47.421,23.369,44.818,19.539,62.7,11.6-1.689-25.663,7.377-40.259,20.214-7.575,31.064-28.21,9.993-38.815,12.339-54.327-10.2-31.67,0-46.02,62.509-14.423,89.891-9.934,47.945,29.243,61,44.492,15.531,30.29,27.668,40.524,17.918,13.093,49.348,9.117c13.043-1.649,26.311-1,39.948-5.07,18.612-5.548,38.788-13.506,38.788-13.506s-20.912,17.052-46.158,35.417c-9.849,7.165-29.752,1.905-37.874,9.394-28.5,26.274-19.538,39.412-35.319,46.692s-60.853,3.348-74.4-9.468-13.874-13.783-23-37.225,1.1-48.559-9.859-53.107-32.009-.548-42.747,13.1-12.646,47.333-12.646,98.39,22.434,63.4,12.646,95.521-44.888,9.938-69.174,29.933-2.828,37.535-27.969,50.047-39.118,15.24-72.594,0-31.157-45.721-61.309-60.961-36.5-34.259-59.621-19.019-16.1,45.646-32.877,79.979-33.912,76.377-33.912,76.377Z" transform="translate(2523 -2556.5)" fill="#d5d5d5"/>
        <line id="Line_296" data-name="Line 296" y1="526.569" transform="translate(-159.07 6804.826) rotate(-45)" fill="none" stroke="#fffae6" stroke-width="5"/>
        <line id="Line_297" data-name="Line 297" y1="526.569" transform="translate(-166.848 6812.604) rotate(-45)" fill="none" stroke="#fffae6" stroke-width="5"/>
        <line id="Line_298" data-name="Line 298" y1="526.569" transform="translate(-174.626 6820.383) rotate(-45)" fill="none" stroke="#fffae6" stroke-width="5"/>
        <line id="Line_299" data-name="Line 299" y1="526.569" transform="translate(-135.736 6781.492) rotate(-45)" fill="none" stroke="#fffae6" stroke-width="5"/>
        <line id="Line_300" data-name="Line 300" y1="526.569" transform="translate(-143.514 6789.271) rotate(-45)" fill="none" stroke="#fffae6" stroke-width="5"/>
        <line id="Line_301" data-name="Line 301" y1="526.569" transform="translate(-151.292 6797.049) rotate(-45)" fill="none" stroke="#fffae6" stroke-width="5"/>
        <line id="Line_302" data-name="Line 302" y1="526.569" transform="translate(-112.401 6758.157) rotate(-45)" fill="none" stroke="#fffae6" stroke-width="5"/>
        <line id="Line_303" data-name="Line 303" y1="526.569" transform="translate(-120.179 6765.936) rotate(-45)" fill="none" stroke="#fffae6" stroke-width="5"/>
        <line id="Line_304" data-name="Line 304" y1="526.569" transform="translate(-127.958 6773.714) rotate(-45)" fill="none" stroke="#fffae6" stroke-width="5"/>
        <line id="Line_305" data-name="Line 305" y1="526.569" transform="translate(-89.066 6734.823) rotate(-45)" fill="none" stroke="#fffae6" stroke-width="5"/>
        <line id="Line_306" data-name="Line 306" y1="526.569" transform="translate(-96.845 6742.602) rotate(-45)" fill="none" stroke="#fffae6" stroke-width="5"/>
        <line id="Line_307" data-name="Line 307" y1="526.569" transform="translate(-104.623 6750.379) rotate(-45)" fill="none" stroke="#fffae6" stroke-width="5"/>
        <line id="Line_308" data-name="Line 308" y1="526.569" transform="translate(-65.732 6711.488) rotate(-45)" fill="none" stroke="#fffae6" stroke-width="5"/>
        <line id="Line_309" data-name="Line 309" y1="526.569" transform="translate(-73.51 6719.267) rotate(-45)" fill="none" stroke="#fffae6" stroke-width="5"/>
        <line id="Line_310" data-name="Line 310" y1="526.569" transform="translate(-81.289 6727.045) rotate(-45)" fill="none" stroke="#fffae6" stroke-width="5"/>
        <line id="Line_311" data-name="Line 311" y1="526.569" transform="translate(-42.397 6688.154) rotate(-45)" fill="none" stroke="#fffae6" stroke-width="5"/>
        <line id="Line_312" data-name="Line 312" y1="526.569" transform="translate(-50.176 6695.933) rotate(-45)" fill="none" stroke="#fffae6" stroke-width="5"/>
        <line id="Line_313" data-name="Line 313" y1="526.569" transform="translate(-57.954 6703.71) rotate(-45)" fill="none" stroke="#fffae6" stroke-width="5"/>
        <line id="Line_314" data-name="Line 314" y1="526.569" transform="translate(-19.063 6664.819) rotate(-45)" fill="none" stroke="#fffae6" stroke-width="5"/>
        <line id="Line_315" data-name="Line 315" y1="526.569" transform="translate(-26.842 6672.598) rotate(-45)" fill="none" stroke="#fffae6" stroke-width="5"/>
        <line id="Line_316" data-name="Line 316" y1="526.569" transform="translate(-34.619 6680.376) rotate(-45)" fill="none" stroke="#fffae6" stroke-width="5"/>
        <line id="Line_317" data-name="Line 317" y1="526.569" transform="translate(4.271 6641.485) rotate(-45)" fill="none" stroke="#fffae6" stroke-width="5"/>
        <line id="Line_318" data-name="Line 318" y1="526.569" transform="translate(-3.507 6649.263) rotate(-45)" fill="none" stroke="#fffae6" stroke-width="5"/>
        <line id="Line_319" data-name="Line 319" y1="526.569" transform="translate(-11.285 6657.041) rotate(-45)" fill="none" stroke="#fffae6" stroke-width="5"/>
        <line id="Line_320" data-name="Line 320" y1="526.569" transform="translate(27.605 6618.15) rotate(-45)" fill="none" stroke="#fffae6" stroke-width="5"/>
        <line id="Line_321" data-name="Line 321" y1="526.569" transform="translate(19.828 6625.929) rotate(-45)" fill="none" stroke="#fffae6" stroke-width="5"/>
        <line id="Line_322" data-name="Line 322" y1="526.569" transform="translate(12.05 6633.707) rotate(-45)" fill="none" stroke="#fffae6" stroke-width="5"/>
        <line id="Line_323" data-name="Line 323" y1="526.569" transform="translate(50.94 6594.815) rotate(-45)" fill="none" stroke="#fffae6" stroke-width="5"/>
        <line id="Line_324" data-name="Line 324" y1="526.569" transform="translate(43.162 6602.594) rotate(-45)" fill="none" stroke="#fffae6" stroke-width="5"/>
        <line id="Line_325" data-name="Line 325" y1="526.569" transform="translate(35.385 6610.372) rotate(-45)" fill="none" stroke="#fffae6" stroke-width="5"/>
        <line id="Line_326" data-name="Line 326" y1="526.569" transform="translate(74.275 6571.481) rotate(-45)" fill="none" stroke="#fffae6" stroke-width="5"/>
        <line id="Line_327" data-name="Line 327" y1="526.569" transform="translate(66.497 6579.26) rotate(-45)" fill="none" stroke="#fffae6" stroke-width="5"/>
        <line id="Line_328" data-name="Line 328" y1="526.569" transform="translate(58.719 6587.038) rotate(-45)" fill="none" stroke="#fffae6" stroke-width="5"/>
        <line id="Line_329" data-name="Line 329" y1="526.569" transform="translate(97.609 6548.146) rotate(-45)" fill="none" stroke="#fffae6" stroke-width="5"/>
        <line id="Line_330" data-name="Line 330" y1="526.569" transform="translate(89.832 6555.925) rotate(-45)" fill="none" stroke="#fffae6" stroke-width="5"/>
        <line id="Line_331" data-name="Line 331" y1="526.569" transform="translate(82.053 6563.703) rotate(-45)" fill="none" stroke="#fffae6" stroke-width="5"/>
        <line id="Line_332" data-name="Line 332" y1="526.569" transform="translate(120.944 6524.813) rotate(-45)" fill="none" stroke="#fffae6" stroke-width="5"/>
        <line id="Line_333" data-name="Line 333" y1="526.569" transform="translate(113.166 6532.591) rotate(-45)" fill="none" stroke="#fffae6" stroke-width="5"/>
        <line id="Line_334" data-name="Line 334" y1="526.569" transform="translate(105.388 6540.369) rotate(-45)" fill="none" stroke="#fffae6" stroke-width="5"/>
        <line id="Line_335" data-name="Line 335" y1="526.569" transform="translate(144.279 6501.478) rotate(-45)" fill="none" stroke="#fffae6" stroke-width="5"/>
        <line id="Line_336" data-name="Line 336" y1="526.569" transform="translate(136.5 6509.256) rotate(-45)" fill="none" stroke="#fffae6" stroke-width="5"/>
        <line id="Line_337" data-name="Line 337" y1="526.569" transform="translate(128.723 6517.034) rotate(-45)" fill="none" stroke="#fffae6" stroke-width="5"/>
        <line id="Line_338" data-name="Line 338" x1="365.454" y1="365.484" transform="translate(174.5 6485)" fill="none" stroke="#fffae6" stroke-width="5"/>
        <line id="Line_339" data-name="Line 339" y1="526.569" transform="translate(159.835 6485.922) rotate(-45)" fill="none" stroke="#fffae6" stroke-width="5"/>
        <line id="Line_340" data-name="Line 340" y1="526.569" transform="translate(152.057 6493.699) rotate(-45)" fill="none" stroke="#fffae6" stroke-width="5"/>
        <line id="Line_341" data-name="Line 341" x1="350.788" y1="351.149" transform="translate(212.5 6476)" fill="none" stroke="#fffae6" stroke-width="5"/>
        <line id="Line_342" data-name="Line 342" x1="350.01" y1="349.928" transform="translate(205.5 6485)" fill="none" stroke="#fffae6" stroke-width="5"/>
        <line id="Line_343" data-name="Line 343" x1="357.232" y1="356.706" transform="translate(190.5 6486)" fill="none" stroke="#fffae6" stroke-width="5"/>
        <line id="Line_344" data-name="Line 344" x1="341.123" y1="340.815" transform="translate(245.5 6463)" fill="none" stroke="#fffae6" stroke-width="5"/>
        <line id="Line_345" data-name="Line 345" x1="350.345" y1="349.593" transform="translate(228.5 6462)" fill="none" stroke="#fffae6" stroke-width="5"/>
        <line id="Line_346" data-name="Line 346" x1="353.567" y1="353.371" transform="translate(217.5 6466)" fill="none" stroke="#fffae6" stroke-width="5"/>
        <line id="Line_347" data-name="Line 347" x1="341.457" y1="341.48" transform="translate(268.5 6439)" fill="none" stroke="#fffae6" stroke-width="5"/>
        <line id="Line_348" data-name="Line 348" x1="350.679" y1="350.259" transform="translate(251.5 6438)" fill="none" stroke="#fffae6" stroke-width="5"/>
        <line id="Line_349" data-name="Line 349" x1="348.901" y1="349.037" transform="translate(245.5 6447)" fill="none" stroke="#fffae6" stroke-width="5"/>
        <line id="Line_350" data-name="Line 350" x1="317.792" y1="318.145" transform="translate(315.5 6439)" fill="none" stroke="#fffae6" stroke-width="5"/>
        <line id="Line_351" data-name="Line 351" x1="340.014" y1="339.924" transform="translate(285.5 6425)" fill="none" stroke="#fffae6" stroke-width="5"/>
        <line id="Line_352" data-name="Line 352" x1="334.236" y1="334.702" transform="translate(283.5 6438)" fill="none" stroke="#fffae6" stroke-width="5"/>
        <path id="Path_343" data-name="Path 343" d="M0,383.927V0" transform="translate(385.149 6462.334) rotate(-45)" fill="none" stroke="#fffae6" stroke-width="5"/>
        <line id="Line_353" data-name="Line 353" x1="279.349" y1="278.59" transform="translate(369.5 6463)" fill="none" stroke="#fffae6" stroke-width="5"/>
        <line id="Line_354" data-name="Line 354" x1="311.57" y1="311.368" transform="translate(329.5 6438)" fill="none" stroke="#fffae6" stroke-width="5"/>
        <line id="Line_355" data-name="Line 355" y1="526.569" transform="translate(-186.171 6823.656) rotate(-45)" fill="none" stroke="#fffae6" stroke-width="5"/>
        <line id="Line_356" data-name="Line 356" y1="526.569" transform="translate(-194.171 6829.656) rotate(-45)" fill="none" stroke="#fffae6" stroke-width="5"/>
      </g>
    </g>
  </g>
</svg>
