<svg xmlns="http://www.w3.org/2000/svg" xmlns:xlink="http://www.w3.org/1999/xlink" width="89.526" height="82.415" viewBox="0 0 89.526 82.415">
  <defs>
    <clipPath id="clip-path">
      <rect id="Rectangle_80" data-name="Rectangle 80" width="89.526" height="82.415" fill="#fffae6"/>
    </clipPath>
  </defs>
  <g id="Group_26" data-name="Group 26" clip-path="url(#clip-path)">
    <path id="Path_218" data-name="Path 218" d="M77.524,35.722A25.147,25.147,0,0,0,68.345,32.3,25.16,25.16,0,0,0,53.6,0a19.489,19.489,0,0,1-7.273,36.5V38.12a7.206,7.206,0,0,1,5.45,8.654l3.11,1.044a19.442,19.442,0,0,1,2.391-2.467,25.142,25.142,0,0,0,3.448-2.383A19.552,19.552,0,0,1,89.508,58.186,25.208,25.208,0,0,0,77.524,35.722M59.814,76.8a19.549,19.549,0,0,1-6.758-26.3l-2.647-.89a7.2,7.2,0,0,1-11.536-.326l-2.413,1.2A19.551,19.551,0,0,1,9.738,77.109a25.233,25.233,0,0,0,35.025-3.977,25.238,25.238,0,0,0,35.027,3.977,19.545,19.545,0,0,1-19.975-.31M28.93,43.041a25.308,25.308,0,0,0,3.227,2.233,19.4,19.4,0,0,1,2.526,2.6l2.988-1.485a7.316,7.316,0,0,1-.107-1.242A7.2,7.2,0,0,1,43.2,38.12V36.574a19.375,19.375,0,0,1-4.805-.879,25.266,25.266,0,0,0-4.773-2.268,19.487,19.487,0,0,1-1.16-31.794A25.16,25.16,0,0,0,21.22,32.3a25.235,25.235,0,0,0-21.2,25.89A19.55,19.55,0,0,1,28.93,43.041" transform="translate(0)" fill="#fffae6"/>
    <path id="Path_219" data-name="Path 219" d="M59.38,49.412a20.145,20.145,0,0,1,23.943-.871A16.809,16.809,0,0,0,86,44.6a24.9,24.9,0,0,0-29.569,1.078,16.862,16.862,0,0,0,2.952,3.737" transform="translate(-26.901 -19.189)" fill="#fffae6"/>
    <path id="Path_220" data-name="Path 220" d="M113.576,81.8A20.147,20.147,0,0,1,102.3,102.936a16.83,16.83,0,0,0,2.066,4.294A24.9,24.9,0,0,0,118.29,81.123a16.855,16.855,0,0,0-4.714.674" transform="translate(-48.769 -38.675)" fill="#fffae6"/>
    <path id="Path_221" data-name="Path 221" d="M53.748,102.972A20.144,20.144,0,0,1,42.66,81.733a16.856,16.856,0,0,0-4.711-.717,24.9,24.9,0,0,0,13.7,26.229,16.858,16.858,0,0,0,2.1-4.273" transform="translate(-17.948 -38.624)" fill="#fffae6"/>
  </g>
</svg>
