<svg id="Group_27" data-name="Group 27" xmlns="http://www.w3.org/2000/svg" xmlns:xlink="http://www.w3.org/1999/xlink" width="171.093" height="157.502" viewBox="0 0 171.093 157.502">
  <defs>
    <clipPath id="clip-path">
      <rect id="Rectangle_80" data-name="Rectangle 80" width="171.093" height="157.502" fill="#eb5729"/>
    </clipPath>
  </defs>
  <g id="Group_26" data-name="Group 26" clip-path="url(#clip-path)">
    <path id="Path_218" data-name="Path 218" d="M148.155,68.268a48.058,48.058,0,0,0-17.541-6.533A48.084,48.084,0,0,0,102.437,0a37.245,37.245,0,0,1-13.9,69.751v3.1A13.771,13.771,0,0,1,98.953,89.389l5.943,2a37.156,37.156,0,0,1,4.569-4.714,48.048,48.048,0,0,0,6.59-4.555,37.365,37.365,0,0,1,55,29.083,48.176,48.176,0,0,0-22.9-42.931m-33.845,78.5a37.36,37.36,0,0,1-12.915-50.253l-5.058-1.7a13.758,13.758,0,0,1-22.047-.623l-4.611,2.292a37.363,37.363,0,0,1-51.07,50.876,48.223,48.223,0,0,0,66.936-7.6,48.233,48.233,0,0,0,66.939,7.6,37.352,37.352,0,0,1-38.174-.592M55.287,82.256a48.366,48.366,0,0,0,6.168,4.267,37.071,37.071,0,0,1,4.828,4.97l5.71-2.838a13.982,13.982,0,0,1-.2-2.374,13.762,13.762,0,0,1,10.769-13.43V69.9a37.028,37.028,0,0,1-9.183-1.679,48.285,48.285,0,0,0-9.121-4.335A37.241,37.241,0,0,1,62.036,3.12a48.083,48.083,0,0,0-21.483,58.6A48.226,48.226,0,0,0,.036,111.2,37.361,37.361,0,0,1,55.287,82.256" fill="#eb5729"/>
    <path id="Path_219" data-name="Path 219" d="M62.07,57.759a38.5,38.5,0,0,1,45.758-1.665,32.124,32.124,0,0,0,5.109-7.538,47.582,47.582,0,0,0-56.509,2.061,32.226,32.226,0,0,0,5.642,7.142" fill="#eb5729"/>
    <path id="Path_220" data-name="Path 220" d="M123.852,82.412a38.5,38.5,0,0,1-21.555,40.4,32.163,32.163,0,0,0,3.948,8.206,47.582,47.582,0,0,0,26.616-49.892,32.211,32.211,0,0,0-9.009,1.289" fill="#eb5729"/>
    <path id="Path_221" data-name="Path 221" d="M68.416,122.976a38.5,38.5,0,0,1-21.19-40.59,32.213,32.213,0,0,0-9-1.37A47.586,47.586,0,0,0,64.4,131.142a32.217,32.217,0,0,0,4.02-8.166" fill="#eb5729"/>
  </g>
</svg>
