<svg xmlns="http://www.w3.org/2000/svg" width="934.238" height="940.103" viewBox="0 0 934.238 940.103">
  <g id="Group_90" data-name="Group 90" transform="translate(-1029.718 1)">
    <path id="Path_1" data-name="Path 1" d="M3783.126,4451.227s25.991-15.186,46.835-33.207,21.123-23.065,36.54-38.874,13.287-17.541,25.13-24.359,17.976-3.845,22.241-2.915,28.47,5.8,43.358-2.542,12.924-19.8,16.372-27.305,16.916-20.845,38.714-14.5,28.371,26.888,31.135,34.2,14.893,23.245,39.222,19.693,63.5-34.524,65.922-72.847-23.591-65.365-23.591-65.365-25.719-34.622-17-52.5,20.527-19.161,37.073-16.13,12.765,26.465,38.75,26.956,38.514-15.936,38.514-15.936,26.782,39.651,55.878,42.037,51.938,9.136,91.9-3.369,60.1-49.688,60.1-49.688,29.935,1.72,46.406,4.156,33.205-12.082,41.241,0-10.917,28.665-28.419,26.01-23.966,20.32-22.919,33.063,19.8,11.123,24.136,18.6-.728,12.048-5.909,14.872-6.843.713-14.815-3.582-19-5.943-34.6-2.723-20.086,6.3-26.41,16.727-1.722,18.236-10.671,28.117-23.42,9.811-37.322,17.713-21.066,15.8-23.85,33.749-4.69,25.528-16.7,35.555-28.476,14.25-37.8,22.5-7.884,17.329-19.523,28.164-51.972,41.941-51.972,41.941,55.426-30.1,68.923-40.422,12.565-12.41,22.023-18.255,13.367-5.226,19.547-4.851,13.814.345,19.883-2.969,22.215-18.933,25.794-29.838-.1-15.306,6.363-22.934,14.127-7.333,19.5-7.575,4.965.438,17.85,6.215,19.807-9.264,23.126-15.583,3-20.988,8.778-22.967,14.962-.36,17.814,6.452,3.034,15.892,0,24.562-7.392,9.985-16.924,12.56-24.35,15.555-32.794,28.15-14.109,32.358-12.5,47.034,5.064,25.545,15.231,37.642,27.232,13.369,34.268,13.359,15.56-1.356,19.288,9.26-.668,20.06-6.571,26.123-18.874,10.96-30.475,12.047-19.073,4.27-28.307,14.269,1.786,30.058,1.786,30.058-6.43,19-23.063,26.25-20.881.266-23.649-4.06-4.607-16.772,0-25.291,14.431-15.54,18.882-26.957-2.456-20.894-9.6-26.751-20.7,1.532-26.9-3.638-.516-13.19,2.1-17.04,15.237-11.883,22.246-19.214,18.148-24.182,18.148-24.182-17.749,22.5-42.5,33.182-25.605,10-41.456,21.615-15.483,16.975-15.909,21.758,4.781,10.095,10.551,10.667,12.514-1.842,20.7,0,9.008,8.658,7.132,17.953-6.482,12.847-15.438,18.438-18.334,3.852-30.805,10-21.706,15.287-31.717,29.044-8.635,23.142-5.231,31.534,24.806,8.236,24.806,8.236-2.342,10.493-12.831,20.774-32.9,2.034-30.146,29.225-21.072,52.182-21.072,52.182,18.672-13.812,32.857-22.605,17.709-23.97,32.253-26.65,31.56-1.058,40.016,7.129,11.781,15.565,13.393,27.35-19.854,17.526-23.831,34.71,4.57,20.051,7.926,34.023,17.1,19.6,19.82,30.115,4.327,12.83,0,22.643-12.624,8.291-17.308,16.61-2.768,8.954-1.428,21.133-7.85,27-7.85,27,12.67-17.1,26.586-28.55,23.771-1.879,33.185-16.824-4.271-21.97,8.031-36.516,20.183-27.22,52.388-28.078,42.932,16.278,71.811,19.148,31.393,18.671,52.639,17.747,37.98-7.942,60.979-32.607,30.667-38.251,31.018-66.05-21.2-31.913-27.959-46.259-3.606-27.376,4.631-35.444,26.916-2.483,26.916-2.483-7.514,3.962-10.127,11.006c-2.129,5.736.149,14.45,6.54,17.165,13.6,5.775,22.841-9.988,32.974-7.523s16.006,11.627,16.006,11.627l37.949-313.1-37.949,41.742s-36.351,12.544-52.967,33.42-21.22,34.872-19.3,58.751,25.095,32.325,25.095,32.325-8.049,11.888-17.968,7.62-26.187-8.333-43.365-2.161c-13.44,6.912-9.549,17.89-13.064,21.234-7.792,7.411-14.941,4.911-14.941,4.911s13.75-23.93,5.887-37.321-24.367-37.419-21.018-57.293,18.315-20.8,32.53-23.471,28.148-6.128,43.539-24.062,25.837-53.42,13.916-70-45.281-.839-53.831-13.206,7.4-23.757,13.487-39.062,7.756-23.442,7.756-23.442a93.1,93.1,0,0,1-16.9,28c-12.138,13.942-27.845,18.57-34.892,28.276s-.581,21.359-5.609,20.535-18.042-9.726-15.655-25.521,23.673-35.446,29.665-41.566,14.849-9.873,23.881-33.436,6.216-54.47,12.624-63.208,9.985-18.865,24.979-22.15,27.111,4.8,38.641,0,20.618-21.367,20.618-21.367,7.283,15.054,3.843,37.628-19.648,30.777-21.7,51.446,12.761,22,10.941,39.339-11.267,11.078-19.855,26.466a279.024,279.024,0,0,1-15.928,25.488s16.938-21.737,28.474-26.486,23.234-7.177,29.543-26.165c3.187-9.589-1.967-25.16-1.9-35.478.063-9.614,3.475-14.307,3.475-14.307V3988.5l-896.289-1.645s2.177,33.283,14.914,48.287,22.559,21.794,42.62,29.336,36.892,10.431,69,8.515a173.5,173.5,0,0,0,58.087-14.368l28.551-15.089s.995,17.064,9.459,22.752,19.818-1.977,26.945,2.115,7.278,12.745,0,20.348-20.134,2.977-34.952,19.433-21.642,31.858-24.321,46.394-2.51,27.105,5.029,41.881,21.285,7.506,25.209,16.9-.775,17.239-8.546,20.679-24.144-2.112-38.42,5.1-14.846,16.872-18.876,29.015-8.84,24.757-18.628,33.155-25.049,3.777-44.426,17.176-18.86,31.971-25.892,50.125-65.75,82.613-65.75,82.613" transform="translate(-2753.409 -3987.855)" fill="#fffae6"/>
    <path id="Path_163" data-name="Path 163" d="M22206.061,776.73c21.977,6.567,26.711-23.664,57.889-19.018s22.641,27.916,50.246,31.126,22.572-4.854,46.172-12.108,39.043,16.4,53.264,0,14.445-22.5,11.549-35.539-22.1-19.9-25.529-41.768-1.893-27.561,5.992-45.857,10.193-16.7,21.52-27.326,26.732-14.436,26.732-14.436-37.766-5.582-64.916,0-24.99,5.637-43.686,22.329-8.365,33.331-31.1,44.442-39.518,16.693-59.832,0,14.795-48.157-5.4-61.241-50.879,1.632-75.375,8.906-38.631,14.659-38.631,14.659,31.967,26.414,47.746,48.392,13.682,16.481,15.375,39.519S22184.084,770.162,22206.061,776.73Z" transform="translate(-20590 22)" fill="#d5d5d5"/>
    <g id="Group_91" data-name="Group 91">
      <path id="Path_162" data-name="Path 162" d="M21762.482,318.175s16.738-23.726,24.482-36.214-.262-25.308,15.83-34.361,32.693,4.795,45.875-4.629,12.957-21.939,9.223-33.948-15.977-25.127-9.223-43,22.363-22.707,36.24-28.486,46.145-16.729,46.145-16.729-15.361,16.695-15.361,38.748,5.477,29.236,12.752,49.464,24.723,34.777,26.943,58.849-5.428,35.8-12.67,41.547-15.059,9.058-34.211,4.184-25.014-24.37-33.861-30.14-21.436-12.37-46.646-4.28S21762.482,318.175,21762.482,318.175Z" transform="translate(-20590 22)" fill="#d5d5d5"/>
      <line id="Line_55" data-name="Line 55" x1="29" y1="29" transform="translate(1176.5 311.5)" fill="none" stroke="#fffae6" stroke-width="5"/>
      <line id="Line_56" data-name="Line 56" x1="25" y1="25" transform="translate(1172.5 322.5)" fill="none" stroke="#fffae6" stroke-width="5"/>
      <line id="Line_57" data-name="Line 57" x1="23" y1="23" transform="translate(1160.5 326.5)" fill="none" stroke="#fffae6" stroke-width="5"/>
      <line id="Line_58" data-name="Line 58" x1="38" y1="38" transform="translate(1191.5 279.5)" fill="none" stroke="#fffae6" stroke-width="5"/>
      <line id="Line_59" data-name="Line 59" x1="28" y1="28" transform="translate(1191.5 295.5)" fill="none" stroke="#fffae6" stroke-width="5"/>
      <line id="Line_60" data-name="Line 60" x1="34" y1="34" transform="translate(1182.5 301.5)" fill="none" stroke="#fffae6" stroke-width="5"/>
      <line id="Line_61" data-name="Line 61" x1="71" y1="71" transform="translate(1214.5 256.5)" fill="none" stroke="#fffae6" stroke-width="5"/>
      <line id="Line_62" data-name="Line 62" x1="52" y1="52" transform="translate(1201.5 258.5)" fill="none" stroke="#fffae6" stroke-width="5"/>
      <line id="Line_63" data-name="Line 63" x1="42" y1="42" transform="translate(1195.5 268.5)" fill="none" stroke="#fffae6" stroke-width="5"/>
      <line id="Line_64" data-name="Line 64" x1="91" y1="91" transform="translate(1254.5 249.5)" fill="none" stroke="#fffae6" stroke-width="5"/>
      <line id="Line_65" data-name="Line 65" x1="90.883" y1="90.415" transform="translate(1243.5 254.5)" fill="none" stroke="#fffae6" stroke-width="5"/>
      <line id="Line_66" data-name="Line 66" x1="88" y1="88" transform="translate(1226.5 252.5)" fill="none" stroke="#fffae6" stroke-width="5"/>
      <line id="Line_67" data-name="Line 67" x1="147.303" y1="146.996" transform="translate(1222.197 170.503)" fill="none" stroke="#fffae6" stroke-width="5"/>
      <line id="Line_68" data-name="Line 68" x1="103" y1="103" transform="translate(1260.5 224.5)" fill="none" stroke="#fffae6" stroke-width="5"/>
      <line id="Line_69" data-name="Line 69" x1="95" y1="95" transform="translate(1261.5 240.5)" fill="none" stroke="#fffae6" stroke-width="5"/>
      <line id="Line_70" data-name="Line 70" y1="202.656" transform="translate(1245.531 147.169) rotate(-45)" fill="none" stroke="#fffae6" stroke-width="5"/>
      <line id="Line_71" data-name="Line 71" y1="202.656" transform="translate(1237.754 154.947) rotate(-45)" fill="none" stroke="#fffae6" stroke-width="5"/>
      <line id="Line_72" data-name="Line 72" y1="202.656" transform="translate(1229.975 162.726) rotate(-45)" fill="none" stroke="#fffae6" stroke-width="5"/>
      <line id="Line_73" data-name="Line 73" x1="79.635" y1="79.665" transform="translate(1268.865 123.834)" fill="none" stroke="#fffae6" stroke-width="5"/>
      <line id="Line_74" data-name="Line 74" x1="93.412" y1="92.887" transform="translate(1261.088 131.613)" fill="none" stroke="#fffae6" stroke-width="5"/>
      <line id="Line_75" data-name="Line 75" x1="116.191" y1="117.109" transform="translate(1253.309 139.391)" fill="none" stroke="#fffae6" stroke-width="5"/>
      <line id="Line_76" data-name="Line 76" x1="59.299" y1="59" transform="translate(1292.201 100.5)" fill="none" stroke="#fffae6" stroke-width="5"/>
      <line id="Line_77" data-name="Line 77" x1="65.078" y1="65.222" transform="translate(1284.422 108.278)" fill="none" stroke="#fffae6" stroke-width="5"/>
      <line id="Line_78" data-name="Line 78" x1="67.855" y1="67.444" transform="translate(1276.645 116.056)" fill="none" stroke="#fffae6" stroke-width="5"/>
      <line id="Line_109" data-name="Line 109" x1="74" y1="74" transform="translate(1581.5 741.5)" fill="none" stroke="#fffae6" stroke-width="5"/>
      <line id="Line_110" data-name="Line 110" x1="65" y1="65" transform="translate(1577.5 753.5)" fill="none" stroke="#fffae6" stroke-width="5"/>
      <line id="Line_112" data-name="Line 112" x1="153.203" y1="153.698" transform="translate(1533.297 646.802)" fill="none" stroke="#fffae6" stroke-width="5"/>
      <line id="Line_113" data-name="Line 113" x1="83" y1="83" transform="translate(1595.5 724.5)" fill="none" stroke="#fffae6" stroke-width="5"/>
      <line id="Line_114" data-name="Line 114" x1="77" y1="77" transform="translate(1588.5 733.5)" fill="none" stroke="#fffae6" stroke-width="5"/>
      <line id="Line_115" data-name="Line 115" x1="223.867" y1="223.033" transform="translate(1556.633 623.467)" fill="none" stroke="#fffae6" stroke-width="5"/>
      <line id="Line_116" data-name="Line 116" x1="193.646" y1="194.255" transform="translate(1548.854 631.245)" fill="none" stroke="#fffae6" stroke-width="5"/>
      <line id="Line_117" data-name="Line 117" x1="180.424" y1="180.477" transform="translate(1541.076 639.023)" fill="none" stroke="#fffae6" stroke-width="5"/>
      <line id="Line_118" data-name="Line 118" y1="332.118" transform="translate(1579.966 600.132) rotate(-45)" fill="none" stroke="#fffae6" stroke-width="5"/>
      <line id="Line_119" data-name="Line 119" y1="332.118" transform="translate(1572.188 607.911) rotate(-45)" fill="none" stroke="#fffae6" stroke-width="5"/>
      <line id="Line_120" data-name="Line 120" y1="332.118" transform="translate(1564.41 615.689) rotate(-45)" fill="none" stroke="#fffae6" stroke-width="5"/>
      <line id="Line_121" data-name="Line 121" x1="140.644" y1="141.141" transform="translate(1697.5 670.5)" fill="none" stroke="#fffae6" stroke-width="5"/>
      <line id="Line_122" data-name="Line 122" x1="198.867" y1="198.919" transform="translate(1631.5 620.5)" fill="none" stroke="#fffae6" stroke-width="5"/>
      <line id="Line_123" data-name="Line 123" x1="213.087" y1="212.697" transform="translate(1609.5 614.5)" fill="none" stroke="#fffae6" stroke-width="5"/>
      <line id="Line_124" data-name="Line 124" x1="148.978" y1="148.806" transform="translate(1712.5 639.5)" fill="none" stroke="#fffae6" stroke-width="5"/>
      <line id="Line_125" data-name="Line 125" x1="148.201" y1="148.585" transform="translate(1705.5 647.5)" fill="none" stroke="#fffae6" stroke-width="5"/>
      <line id="Line_126" data-name="Line 126" x1="141.423" y1="141.363" transform="translate(1704.5 662.5)" fill="none" stroke="#fffae6" stroke-width="5"/>
      <line id="Line_127" data-name="Line 127" x1="126" y1="126" transform="translate(1708.5 589.5)" fill="none" stroke="#fffae6" stroke-width="5"/>
      <line id="Line_128" data-name="Line 128" x1="150" y1="150" transform="translate(1711.5 607.5)" fill="none" stroke="#fffae6" stroke-width="5"/>
      <line id="Line_129" data-name="Line 129" x1="148.757" y1="149.028" transform="translate(1720.5 631.5)" fill="none" stroke="#fffae6" stroke-width="5"/>
      <line id="Line_130" data-name="Line 130" x1="110" y1="110" transform="translate(1727.5 560.5)" fill="none" stroke="#fffae6" stroke-width="5"/>
      <line id="Line_131" data-name="Line 131" x1="102" y1="102" transform="translate(1736.5 585.5)" fill="none" stroke="#fffae6" stroke-width="5"/>
      <line id="Line_132" data-name="Line 132" x1="92" y1="92" transform="translate(1742.5 607.5)" fill="none" stroke="#fffae6" stroke-width="5"/>
      <line id="Line_133" data-name="Line 133" x1="69" y1="69" transform="translate(1822.5 609.5)" fill="none" stroke="#fffae6" stroke-width="5"/>
      <line id="Line_134" data-name="Line 134" x1="58" y1="58" transform="translate(1803.5 605.5)" fill="none" stroke="#fffae6" stroke-width="5"/>
      <line id="Line_135" data-name="Line 135" x1="102" y1="102" transform="translate(1754.5 572.5)" fill="none" stroke="#fffae6" stroke-width="5"/>
      <line id="Line_136" data-name="Line 136" x1="57" y1="57" transform="translate(1834.5 605.5)" fill="none" stroke="#fffae6" stroke-width="5"/>
    </g>
  </g>
</svg>
