<svg xmlns="http://www.w3.org/2000/svg" width="670.799" height="791.888" viewBox="0 0 670.799 791.888">
  <g id="hero-dec-left" transform="translate(42.696 -455.265)">
    <path id="Path_161" data-name="Path 161" d="M0,333.428s18.662-10.9,33.628-23.843,15.167-16.561,26.236-27.912,9.541-12.595,18.044-17.49,12.907-2.761,15.97-2.093,20.442,4.167,31.132-1.825,9.28-14.215,11.756-19.606,12.146-14.967,27.8-10.412,20.371,19.306,22.356,24.555,10.693,16.69,28.162,14.14,45.594-24.789,47.333-52.305S245.475,169.7,245.475,169.7s-18.467-24.859-12.208-37.693,14.739-13.758,26.619-11.582,9.166,19,27.824,19.355,27.654-11.442,27.654-11.442,19.23,28.47,40.122,30.183,37.292,6.56,65.984-2.419,60.877-52.427,60.877-52.427,3.766,17.985,15.593,19.734,23.842-8.675,29.612,0-7.839,20.582-20.405,18.676-17.208,14.59-16.457,23.739,14.217,7.987,17.33,13.352-.523,8.651-4.243,10.678-4.913.512-10.637-2.572S479.5,183.018,468.3,185.33s-14.422,4.521-18.963,12.01-1.237,13.094-7.662,20.189-16.816,7.044-26.8,12.718-15.126,11.346-17.125,24.232-3.367,18.33-11.99,25.529-20.446,10.232-27.141,16.159-5.661,12.443-14.018,20.222S307.285,346.5,307.285,346.5s39.8-21.612,49.488-29.024,9.022-8.911,15.813-13.108,9.6-3.752,14.035-3.483,9.919.247,14.276-2.132,15.951-13.594,18.521-21.424-.073-10.99,4.569-16.467,10.143-5.265,14-5.439,3.565.314,12.817,4.463,14.222-6.652,16.6-11.189,2.155-15.07,6.3-16.491,10.743-.259,12.791,4.632,2.178,11.411,0,17.636-5.307,7.17-12.152,9.018S456.865,274.666,450.8,283.71s-10.13,23.234-8.974,33.771,3.636,18.342,10.936,27.027,19.553,9.6,24.605,9.592,11.172-.974,13.849,6.649-.48,14.4-4.718,18.757-13.552,7.869-21.881,8.65-13.695,3.066-20.325,10.245,1.282,21.582,1.282,21.582-4.617,13.643-16.56,18.848-14.993.191-16.98-2.915-3.308-12.043,0-18.159S422.4,406.6,425.594,398.4s-1.763-15-6.9-19.208-14.861,1.1-19.311-2.612-.371-9.471,1.51-12.235,10.94-8.532,15.973-13.8S429.9,333.188,429.9,333.188s-12.744,16.152-30.514,23.825S381,364.19,369.621,372.533,358.5,384.721,358.2,388.156s3.433,7.248,7.575,7.659,8.985-1.323,14.866,0,6.468,6.216,5.121,12.891-4.654,9.224-11.085,13.238-13.164,2.766-22.118,7.178-15.585,10.976-22.773,20.854-6.2,16.616-3.756,22.642,17.811,5.913,17.811,5.913-1.682,7.534-9.213,14.916S311,494.909,312.981,514.432s-15.13,37.467-15.13,37.467,13.407-9.917,23.592-16.231,12.715-17.211,23.159-19.135,22.66-.759,28.732,5.119,8.459,11.176,9.616,19.638-14.256,12.584-17.111,24.923,3.281,14.4,5.691,24.429,12.281,14.076,14.231,21.623,3.107,9.212,0,16.258-9.064,5.953-12.427,11.926-1.987,6.429-1.025,15.174-5.637,19.388-5.637,19.388,9.1-12.277,19.089-20.5,17.068-1.349,23.827-12.08-3.066-15.775,5.766-26.219,14.491-19.544,37.615-20.161S483.8,607.74,504.531,609.8s22.541,13.406,37.8,12.742,27.271-5.7,43.784-23.413,22.02-27.465,22.271-47.425-15.224-22.914-20.075-33.215-2.589-19.656,3.325-25.45,19.326-1.783,19.326-1.783-5.4,2.845-7.271,7.9c-1.529,4.119.107,10.375,4.7,12.324,9.763,4.147,16.4-7.171,23.675-5.4s11.492,8.349,11.492,8.349L670.8,289.618,643.551,319.59s-26.1,9.007-38.031,24-15.236,25.039-13.858,42.184,18.018,23.21,18.018,23.21-5.779,8.536-12.9,5.471-18.8-5.984-31.137-1.552c-9.65,4.963-6.857,12.845-9.38,15.247-5.594,5.321-10.728,3.526-10.728,3.526s9.872-17.182,4.227-26.8-17.5-26.867-15.091-41.137,13.15-14.936,23.357-16.853,20.211-4.4,31.262-17.277,18.552-38.357,9.992-50.261-32.512-.6-38.652-9.482,5.314-17.058,9.684-28.047,5.569-16.832,5.569-16.832a66.85,66.85,0,0,1-12.132,20.1c-8.715,10.011-19.993,13.333-25.053,20.3s-.417,15.336-4.027,14.744-12.954-6.983-11.24-18.325,17-25.451,21.3-29.845,10.662-7.089,17.147-24.008,4.463-39.11,9.064-45.384,7.17-13.546,17.935-15.9,19.466,3.445,27.745,0,14.8-15.342,14.8-15.342,5.229,10.809,2.76,27.018-14.107,22.1-15.584,36.939,9.162,15.8,7.855,28.246-8.09,7.954-14.256,19a200.339,200.339,0,0,1-11.436,18.3s12.161-15.608,20.445-19.018,16.682-5.153,21.212-18.787c2.288-6.885-1.412-18.065-1.364-25.474.045-6.9,2.5-10.273,2.5-10.273V1.181S652.013-20.143,618.6-26.8c-15.277-4.409-37.62-32.921-52.958-18.61-25.684,23.965-38.091,68.224-38.091,68.224s-54.617-28.491-78.216-5.356c-20.014,19.621-18.12,36.569-48.439,36.178-23.8-1.248-14.518-37.7-33.8-43.81-11.24-4.729-6.983-27.21,0-36.626,6.164-8.313,24.581-10.274,29.627-18.61,9.657-15.953,18.149-23.611,18.149-23.611s-16.693,13.061-32.6,19.837c-13.669,5.824-33.432,3.246-39.037-2.453-21.444-21.8-23.736-79.046-55.533-62.172C277-102.8,249.035-101.918,238.49-93.058a77.582,77.582,0,0,0-15.871,18.437S278.16-102.15,283.4-63.366c3.281,24.263,2.952,45.682-26.873,49.51-12.81,1.552-6.273.412-46.855-16.04-29.484-13.331-20.49,21.937-45.113,24.423-22.451,3.212-19.781.212-32,6.654C96.532,20.171,91.966,41.735,83.928,58.553,72.261,82.961,52.743,83.28,47.21,91.723c-5.792,8.839-8.553,22.611-8.553,22.611a58.158,58.158,0,0,1,18.1-16.58c11.395-6.511,28-9.652,40.943-6.031,25.636,7.17,21.022-26.483,34.862-38.088S147.279,40.94,154.1,41.79s4.384,10.416,10.462,14.5,9.517-.676,14.634,2.262,5.226,9.151,0,14.611S164.741,75.3,154.1,87.116s-15.54,22.875-17.463,33.312-1.8,19.462,3.611,30.071,15.283,5.389,18.1,12.135-.557,12.378-6.136,14.848-17.336-1.516-27.587,3.665-10.66,12.114-13.553,20.833-6.347,17.776-13.375,23.806S79.713,228.5,65.8,238.12,52.258,261.075,47.21,274.11,0,333.428,0,333.428" transform="translate(628.102 1130.276) rotate(180)" fill="#fffae6"/>
    <g id="Group_93" data-name="Group 93">
      <path id="Path_164" data-name="Path 164" d="M21080.309,899.576s-24.939,1.13-39.363-5.479-18.107-17.39-32.574-19.021-23.76,3.169-25.293,12.5,2.891,19.175,6.855,26.235,7.3,15.094,13.609,25.563,14.533,22.181,12.916,37.406-12.418,19.609-19.387,23.5a72.4,72.4,0,0,1-36.432,9.959c-17.307,0-16.5-9.959-32.795-9.959s-17.428,11.62-32.389,9.959-17.232-7.341-27.457-16.605-26.9-16.85-26.9-16.85,12.07,30.045,21.838,54.167.2,39.222,17.688,54.25,12.863,9.22,36.346,14.818,33.689-14.818,53.82-14.818,40.8,12.125,40.8,12.125-3.441-36.531-3.225-47.45a34.477,34.477,0,0,1,18.273-29.552c12.395-6.889,25.137-16.122,27.531-32.6s-18.654-26.26-15.686-45.679S21080.309,899.576,21080.309,899.576Z" transform="translate(-20590 22)" fill="#d5d5d5"/>
      <line id="Line_143" data-name="Line 143" x1="99.846" y1="100.019" transform="translate(231.654 1029.481)" fill="none" stroke="#fffae6" stroke-width="5"/>
      <line id="Line_144" data-name="Line 144" x1="110.625" y1="110.241" transform="translate(223.875 1037.259)" fill="none" stroke="#fffae6" stroke-width="5"/>
      <line id="Line_146" data-name="Line 146" x1="135" y1="135" transform="translate(247.5 998.5)" fill="none" stroke="#fffae6" stroke-width="5"/>
      <line id="Line_147" data-name="Line 147" x1="118.289" y1="118.575" transform="translate(247.211 1013.925)" fill="none" stroke="#fffae6" stroke-width="5"/>
      <line id="Line_148" data-name="Line 148" x1="114.068" y1="114.797" transform="translate(239.432 1021.703)" fill="none" stroke="#fffae6" stroke-width="5"/>
      <line id="Line_149" data-name="Line 149" x1="121.121" y1="121.611" transform="translate(300.5 1004.5)" fill="none" stroke="#fffae6" stroke-width="5"/>
      <line id="Line_150" data-name="Line 150" y1="202.656" transform="translate(270.545 990.59) rotate(-45)" fill="none" stroke="#fffae6" stroke-width="5"/>
      <line id="Line_151" data-name="Line 151" y1="202.656" transform="translate(262.768 998.368) rotate(-45)" fill="none" stroke="#fffae6" stroke-width="5"/>
      <line id="Line_152" data-name="Line 152" x1="95.457" y1="95.277" transform="translate(349.5 1007.5)" fill="none" stroke="#fffae6" stroke-width="5"/>
      <line id="Line_153" data-name="Line 153" x1="105.678" y1="106.055" transform="translate(331.5 1004.5)" fill="none" stroke="#fffae6" stroke-width="5"/>
      <line id="Line_154" data-name="Line 154" x1="110.901" y1="110.833" transform="translate(318.5 1007.5)" fill="none" stroke="#fffae6" stroke-width="5"/>
      <line id="Line_155" data-name="Line 155" x1="40" y1="40" transform="translate(401.5 1012.5)" fill="none" stroke="#fffae6" stroke-width="5"/>
      <line id="Line_156" data-name="Line 156" x1="47" y1="47" transform="translate(385.5 1012.5)" fill="none" stroke="#fffae6" stroke-width="5"/>
      <line id="Line_157" data-name="Line 157" x1="56" y1="56" transform="translate(374.5 1017.5)" fill="none" stroke="#fffae6" stroke-width="5"/>
      <line id="Line_158" data-name="Line 158" x1="89" y1="89" transform="translate(379.5 943.5)" fill="none" stroke="#fffae6" stroke-width="5"/>
      <line id="Line_159" data-name="Line 159" x1="52" y1="52" transform="translate(406.5 986.5)" fill="none" stroke="#fffae6" stroke-width="5"/>
      <line id="Line_160" data-name="Line 160" x1="51" y1="51" transform="translate(400.5 995.5)" fill="none" stroke="#fffae6" stroke-width="5"/>
      <line id="Line_161" data-name="Line 161" x1="90" y1="90" transform="translate(378.5 896.5)" fill="none" stroke="#fffae6" stroke-width="5"/>
      <line id="Line_162" data-name="Line 162" x1="102" y1="102" transform="translate(378.5 911.5)" fill="none" stroke="#fffae6" stroke-width="5"/>
      <line id="Line_163" data-name="Line 163" x1="86" y1="86" transform="translate(388.5 937.5)" fill="none" stroke="#fffae6" stroke-width="5"/>
      <line id="Line_164" data-name="Line 164" x1="66" y1="66" transform="translate(410.5 881.5)" fill="none" stroke="#fffae6" stroke-width="5"/>
      <line id="Line_165" data-name="Line 165" x1="72" y1="72" transform="translate(394.5 881.5)" fill="none" stroke="#fffae6" stroke-width="5"/>
      <line id="Line_166" data-name="Line 166" x1="79" y1="79" transform="translate(387.5 889.5)" fill="none" stroke="#fffae6" stroke-width="5"/>
      <line id="Line_168" data-name="Line 168" x1="28" y1="28" transform="translate(468.5 908.5)" fill="none" stroke="#fffae6" stroke-width="5"/>
      <line id="Line_169" data-name="Line 169" x1="50" y1="50" transform="translate(433.5 889.5)" fill="none" stroke="#fffae6" stroke-width="5"/>
    </g>
  </g>
</svg>
