<svg width="207" height="101" viewBox="0 0 207 101" fill="none" xmlns="http://www.w3.org/2000/svg">
<g clip-path="url(#clip0_59_2)">
<path d="M54.139 28.0948H27.298V3.93884L0.462999 44.2008H21.933L0.462999 76.4058H43.403L54.139 60.2998H32.668L54.139 28.0948Z" fill="#FFAD93"/>
<path d="M27.298 81.7769V100.562L39.828 81.7769H27.298Z" fill="#FFAD93"/>
<path d="M52.068 24.546H25.227V0.390015L-1.608 40.652H19.862L-1.608 72.857H41.332L52.068 56.751H30.597L52.068 24.546Z" fill="#FFFAE6"/>
<path d="M25.227 78.228V97.013L37.757 78.228H25.227Z" fill="#FFFAE6"/>
<path d="M41.3018 72.8561L-1.59861 72.8271L0.522484 76.4071L43.3994 76.4321L41.3018 72.8561Z" fill="url(#paint0_linear_59_2)"/>
<path d="M52.0576 56.7412L54.1377 60.3132L43.3838 76.4062L41.2744 72.8852L52.0576 56.7412Z" fill="#FFAD93"/>
<path d="M52.0322 24.5352L54.1319 28.0891L35.0537 56.7352H30.5947L52.0322 24.5352Z" fill="#FFAD93"/>
<path d="M37.7315 78.2412L39.8233 81.7862L27.3037 100.555L25.2256 97.0242L37.7315 78.2412Z" fill="#FFAD93"/>
<path d="M19.8447 40.6587L-1.60252 40.6367L0.518578 44.2167L17.46 44.2337L19.8447 40.6587Z" fill="url(#paint1_linear_59_2)"/>
<path d="M25.2139 0.335938L27.2842 4.02494V24.5359H25.2022L25.2139 0.335938Z" fill="#FFAD93"/>
<path d="M90.592 34.2811C91.4941 32.8692 91.9794 31.2314 91.992 29.5561V24.8311H71.602V35.7211H79.162V32.3911H83.802L72.952 49.7161C72.0652 51.1321 71.5972 52.7702 71.602 54.4411V58.0411H91.987V47.1061H84.382V50.4361H80.382L90.592 34.2811ZM106.837 32.4411V24.8811H95.587V32.4411H97.432V50.4811H95.587V58.0411H106.837V50.4811H104.992V32.4411H106.837ZM118.042 50.4811V24.8761H110.442V53.5411C110.445 54.7335 110.921 55.8761 111.764 56.7192C112.607 57.5624 113.75 58.0376 114.942 58.0411H132.132V50.4811H118.042ZM143.332 50.4811V24.8761H135.732V53.5411C135.735 54.7335 136.211 55.8761 137.054 56.7192C137.897 57.5624 139.04 58.0376 140.232 58.0411H157.422V50.4811H143.332ZM178.162 24.8761H165.472C164.883 24.875 164.299 24.9909 163.755 25.2172C163.211 25.4436 162.718 25.7757 162.303 26.1944C161.889 26.6131 161.562 27.1099 161.341 27.6561C161.12 28.2023 161.01 28.7869 161.017 29.3761V58.0411H168.577V45.6661H175.102V58.0411H182.662V29.3761C182.664 28.7845 182.549 28.1984 182.324 27.6515C182.098 27.1046 181.767 26.6076 181.349 26.1894C180.93 25.7711 180.433 25.4397 179.887 25.2143C179.34 24.9889 178.754 24.8739 178.162 24.8761V24.8761ZM168.577 38.1061V32.4411H175.102V38.1111L168.577 38.1061ZM205.252 34.2811C206.152 32.8687 206.636 31.2309 206.647 29.5561V24.8311H186.262V35.7211H193.822V32.3911H198.457L187.612 49.7161C186.725 51.1321 186.257 52.7702 186.262 54.4411V58.0411H206.647V47.1061H199.047V50.4361H195.042L205.252 34.2811Z" fill="#FFFAE6"/>
</g>
<defs>
<linearGradient id="paint0_linear_59_2" x1="20.9004" y1="72.8271" x2="20.9004" y2="76.4321" gradientUnits="userSpaceOnUse">
<stop stop-color="#EA7652"/>
<stop offset="1" stop-color="#FFAD93"/>
</linearGradient>
<linearGradient id="paint1_linear_59_2" x1="9.12112" y1="40.6367" x2="9.12112" y2="44.2337" gradientUnits="userSpaceOnUse">
<stop stop-color="#EA7652"/>
<stop offset="1" stop-color="#FFAD93"/>
</linearGradient>
<clipPath id="clip0_59_2">
<rect width="207" height="101" fill="white"/>
</clipPath>
</defs>
</svg>
