<svg xmlns="http://www.w3.org/2000/svg" width="4302.82" height="3216.959" viewBox="0 0 4302.82 3216.959">
  <path id="Path_211" data-name="Path 211" d="M21344.5,1713.979l29.043-24.463,2.193-25.094,8.424-26.5-3.82-19.862v-17.881l11.23-4.963,7.328-13.687v-17.318l9.287-15.082-9.287-21.262,13.482-25.862-2-17.324-11.48-12.779,27.143-65.824,58.027-72.721,6.377-58.127v-57.318l31.813-35.7v-43.74l15.33-121.912-15.33-104.38,56.877-112.381,23.42-200.811,34.766-130.952,74.857-52.374-47.723-116.662L21718.32,189.6l-6.145-79.666L21827.029,58.2l24.375-151.32h68.268l85.432-30.97,98.678-106.414-10.311-110.4,31.174-104.113,91.814,28.006,87.078-28.006L22403.453-557l14.193-136.912,156.975,48.514,13.844-196.631,90.648-47.786,12.9-92.27,117.531,49.352,96.361-49.352v-127.006l94.662-56.234,156.094,14.953,128.42-43.691,100.8,119.942h282.449l66.838-91.2h121.973l110.619,32.358L24097.41-1270.2H24238.9l140.09-122.764h120.883l132.58-110.016,191.365,24.45,134.682,101.317,179.777-31.009,136.51,138.023,122.943-49.477h213.838l-27.578,210.583,27.578,127.006-27.578,262.248-37.576,74.439-18.666,200.386,119.566,117.192-100.9,156.223-148.684,78.481-43.7,129.21-164.984,73.846-50.77,104.342,50.77,134.639-70.461,21.139-49.328,105.331.178,224.433-39.48,92.749-118.467-24.527-52.549,104.673h-89.713l-122.922-27.468-35.494,79.033,19.625,62.037-52.842,85.222-130.527,78.428-184.572-11.506-147.592,43.74-107.6-43.74h-168.74l-70.332,66.422H23633.23l-98.209-22.682h-109.471l-95.307-43.74-46.2,79.444-17.221,94.931-154.607-20.345-111.65,20.345h-70.527l-64.467-86.17-111.9,11.337-87.021,54.487-134.973-22.5-62.99,42.849h-104.254l-75.592,41.684-35.988,73.507-88.393,64.214-60.68-20.345h-77.828l-85.8,50.547h-113.127l-34.213,59.081-74.5-7.921-6.145,36.623h-53.234l-14.367,27.69-27.24,3.385-26.648,9.017-8.66,17.748-21.766,4.767-17.977-4.767-12.814-10.817-19.348,4.893-14.865,10.691-21.918,5.454-24.344-2.356-17.508,11.14-8.477,11.637-14.826,1.955-16.615-1.955Z" transform="translate(-21344.498 1502.98)" fill="#eb5729"/>
</svg>
