<svg xmlns="http://www.w3.org/2000/svg" xmlns:xlink="http://www.w3.org/1999/xlink" width="112" height="112" viewBox="0 0 112 112">
  <defs>
    <linearGradient id="linear-gradient" x1="0.5" y1="-0.393" x2="0.5" y2="1.185" gradientUnits="objectBoundingBox">
      <stop offset="0" stop-color="#fffae6"/>
      <stop offset="1" stop-color="#ffad93" stop-opacity="0.169"/>
    </linearGradient>
  </defs>
  <g id="Numb-2" transform="translate(-904 -8132)">
    <circle id="Ellipse_11" data-name="Ellipse 11" cx="56" cy="56" r="56" transform="translate(904 8132)" fill="url(#linear-gradient)"/>
    <path id="Path_558" data-name="Path 558" d="M20.878-9.015v-9.058h-9.11v9.121H2.775V0H48.158v-9.01H20.878ZM39.106-36.378v.052l.052-.052h-.052ZM11.828-45.337v8.954l27.278,0v-8.959Zm9.1,27.211h-.052l.041.042-.041-.042v.052h.052Zm18.123-9.121c-6.015,0-12.028,0-18.123,0v9.123H39.053Zm.055-.047h-.054l.044.039-.046-.04v.048h.055c0-.016,0-.031,0-.047Zm0-9.032h.052c0-.017,0-.035,0-.052Zm9.026,0H39.159q-.026,4.516-.05,9.032h9.024ZM2.775-27.353h9V-36.33h-9Zm9-8.976h.052l-.038-.038.038.038v-.052h-.052c0,.018,0,.035,0,.053Z" transform="translate(935 8209)" fill="#fffae6"/>
  </g>
</svg>
