<svg width="371" height="76" viewBox="0 0 371 76" fill="none" xmlns="http://www.w3.org/2000/svg">
<path d="M0 0.563721H371V47.254L365.153 49.7905L359.559 55.2891L351.523 58.8273L350.461 57.0925L348.392 58.8273L341.969 57.0925L339.605 60.0178H334.901L325.083 63.9916L323.858 61.3245L319.222 64.7154L51.8644 62.4334L46.1787 65.1585L41.2981 60.0176V63.9914L36.1662 58.8269L29.9961 57.0921L27.5237 52.4151L23.6525 53.8066L18.5579 52.4151L13.2848 53.8066L12.3265 46.3362L5.47689 47.2523L0 44.5002V0.563721Z" fill="#EA7652"/>
<path d="M53.1838 58.2466C53.1838 58.2466 56.8086 60.5203 59.3915 65.2399C60.9461 68.0805 67.6259 66.1887 67.6259 66.1887L78.7344 70.8261L92.088 67.9912L98.4991 69.5353L102.606 73.6562L105.303 71.6231L105.516 73.9814L117.924 69.4386L131.365 74.8065L137.136 71.644L142.233 73.7701L145.548 71.2708L147.844 74.3206L152.972 73.2463L155.265 74.5062L164.953 70.6144L170.346 74.0607L174.368 71.0283L174.705 74.8218L187.472 72.263L196.907 74.8712L200.834 71.9104L200.169 75.6802L205.656 74.6144L209.616 74.9957L210.607 72.4934L212.638 75.191L220.176 71.8991L227.645 75.1121L239.684 71.6646L249.363 75.624L252.71 73.1012L255.838 75.3347L264.942 70.3703L274.145 72.1548L287.669 70.0919L299.898 71.1529L308.626 67.9319L320 63L306.352 61L301.867 58.5859L293.243 61.0406L287.263 58.3541L283.762 60.9935L279.799 57.8536L270.273 59.5207L260.03 56.81L257.256 56.2541L251.576 55.1721L247.147 58.5113L242.349 55.4335L238.476 57.2559L235.857 53.7766L226.92 56.285L220.742 52.9914L214.457 55.5963L209.954 52.682L195.992 54.8637L184.967 53.7409L173.13 56.0379L168.356 53.0709L166.133 54.7463L163.435 52.5968L152.8 54.7365L143.512 52.6683L140.202 55.1632L137.869 52.0646L126.572 57.3735L116.204 55.5067L113.603 57.4673L112.846 54.8079L88.0876 58.7664L70.5837 57.6115L53.1838 58.2466Z" fill="#EA7652"/>
</svg>
