<svg xmlns="http://www.w3.org/2000/svg" width="199.598" height="206.195" viewBox="0 0 199.598 206.195">
  <g id="rad-set" transform="translate(-685.802 -5999.305)">
    <g id="Group_115" data-name="Group 115" transform="translate(820.926 5999.306)">
      <path id="Path_428" data-name="Path 428" d="M31.394,0A31.394,31.394,0,1,1,0,31.394,31.394,31.394,0,0,1,31.394,0Z" fill="#11293b"/>
      <path id="path2160" d="M26.483,0A26.483,26.483,0,0,1,13.241,22.935L0,0Z" transform="translate(31.37 31.101) rotate(60)" fill="#eb5729"/>
      <path id="path3138" d="M26.483,0A26.483,26.483,0,0,1,13.241,22.935L0,0Z" transform="translate(31.37 31.207) rotate(180)" fill="#eb5729"/>
      <path id="path3140" d="M26.483,0A26.483,26.483,0,0,1,13.241,22.935L0,0Z" transform="translate(31.371 31.206) rotate(-60)" fill="#eb5729"/>
      <path id="path3144" d="M219.715,212.112a7.6,7.6,0,1,1-7.6-7.6A7.6,7.6,0,0,1,219.715,212.112Z" transform="translate(-180.741 -180.906)" fill="#11293b"/>
      <path id="path3144-2" data-name="path3144" d="M214.456,209.482a4.974,4.974,0,1,1-4.974-4.974A4.974,4.974,0,0,1,214.456,209.482Z" transform="translate(-178.112 -178.275)" fill="#eb5729"/>
    </g>
    <g id="Group_116" data-name="Group 116" transform="translate(786.985 5999.306)">
      <path id="Path_428-2" data-name="Path 428" d="M31.394,0A31.394,31.394,0,1,1,0,31.394,31.394,31.394,0,0,1,31.394,0Z" transform="translate(0)" fill="#11293b"/>
      <path id="path2160-2" data-name="path2160" d="M26.483,0A26.483,26.483,0,0,1,13.241,22.935L0,0Z" transform="translate(31.37 31.101) rotate(60)" fill="#eb5729"/>
      <path id="path3138-2" data-name="path3138" d="M26.483,0A26.483,26.483,0,0,1,13.241,22.935L0,0Z" transform="translate(31.37 31.207) rotate(180)" fill="#eb5729"/>
      <path id="path3140-2" data-name="path3140" d="M26.483,0A26.483,26.483,0,0,1,13.241,22.935L0,0Z" transform="translate(31.371 31.206) rotate(-60)" fill="#eb5729"/>
      <path id="path3144-3" data-name="path3144" d="M219.715,212.112a7.6,7.6,0,1,1-7.6-7.6A7.6,7.6,0,0,1,219.715,212.112Z" transform="translate(-180.741 -180.906)" fill="#11293b"/>
      <path id="path3144-4" data-name="path3144" d="M214.456,209.482a4.974,4.974,0,1,1-4.974-4.974A4.974,4.974,0,0,1,214.456,209.482Z" transform="translate(-178.112 -178.275)" fill="#eb5729"/>
    </g>
    <g id="Group_117" data-name="Group 117" transform="translate(753.043 5999.306)">
      <path id="Path_428-3" data-name="Path 428" d="M31.394,0A31.394,31.394,0,1,1,0,31.394,31.394,31.394,0,0,1,31.394,0Z" transform="translate(0)" fill="#11293b"/>
      <path id="path2160-3" data-name="path2160" d="M26.483,0A26.483,26.483,0,0,1,13.241,22.935L0,0Z" transform="translate(31.37 31.101) rotate(60)" fill="#eb5729"/>
      <path id="path3138-3" data-name="path3138" d="M26.483,0A26.483,26.483,0,0,1,13.241,22.935L0,0Z" transform="translate(31.37 31.207) rotate(180)" fill="#eb5729"/>
      <path id="path3140-3" data-name="path3140" d="M26.483,0A26.483,26.483,0,0,1,13.241,22.935L0,0Z" transform="translate(31.371 31.206) rotate(-60)" fill="#eb5729"/>
      <path id="path3144-5" data-name="path3144" d="M219.715,212.112a7.6,7.6,0,1,1-7.6-7.6A7.6,7.6,0,0,1,219.715,212.112Z" transform="translate(-180.741 -180.906)" fill="#11293b"/>
      <path id="path3144-6" data-name="path3144" d="M214.456,209.482a4.974,4.974,0,1,1-4.974-4.974A4.974,4.974,0,0,1,214.456,209.482Z" transform="translate(-178.112 -178.275)" fill="#eb5729"/>
    </g>
    <g id="Group_118" data-name="Group 118" transform="translate(719.957 5999.306)">
      <path id="Path_428-4" data-name="Path 428" d="M31.394,0A31.394,31.394,0,1,1,0,31.394,31.394,31.394,0,0,1,31.394,0Z" transform="translate(0)" fill="#11293b"/>
      <path id="path2160-4" data-name="path2160" d="M26.483,0A26.483,26.483,0,0,1,13.241,22.935L0,0Z" transform="translate(31.37 31.101) rotate(60)" fill="#eb5729"/>
      <path id="path3138-4" data-name="path3138" d="M26.483,0A26.483,26.483,0,0,1,13.241,22.935L0,0Z" transform="translate(31.37 31.207) rotate(180)" fill="#eb5729"/>
      <path id="path3140-4" data-name="path3140" d="M26.483,0A26.483,26.483,0,0,1,13.241,22.935L0,0Z" transform="translate(31.371 31.206) rotate(-60)" fill="#eb5729"/>
      <path id="path3144-7" data-name="path3144" d="M219.715,212.112a7.6,7.6,0,1,1-7.6-7.6A7.6,7.6,0,0,1,219.715,212.112Z" transform="translate(-180.741 -180.906)" fill="#11293b"/>
      <path id="path3144-8" data-name="path3144" d="M214.456,209.482a4.974,4.974,0,1,1-4.974-4.974A4.974,4.974,0,0,1,214.456,209.482Z" transform="translate(-178.112 -178.275)" fill="#eb5729"/>
    </g>
    <g id="Group_119" data-name="Group 119" transform="translate(820.926 6069.65)">
      <path id="Path_428-5" data-name="Path 428" d="M31.394,0A31.394,31.394,0,1,1,0,31.394,31.394,31.394,0,0,1,31.394,0Z" fill="#11293b"/>
      <path id="path2160-5" data-name="path2160" d="M26.483,0A26.483,26.483,0,0,1,13.241,22.935L0,0Z" transform="translate(31.37 31.101) rotate(60)" fill="#eb5729"/>
      <path id="path3138-5" data-name="path3138" d="M26.483,0A26.483,26.483,0,0,1,13.241,22.935L0,0Z" transform="translate(31.37 31.207) rotate(180)" fill="#eb5729"/>
      <path id="path3140-5" data-name="path3140" d="M26.483,0A26.483,26.483,0,0,1,13.241,22.935L0,0Z" transform="translate(31.371 31.206) rotate(-60)" fill="#eb5729"/>
      <path id="path3144-9" data-name="path3144" d="M219.715,212.112a7.6,7.6,0,1,1-7.6-7.6A7.6,7.6,0,0,1,219.715,212.112Z" transform="translate(-180.741 -180.906)" fill="#11293b"/>
      <path id="path3144-10" data-name="path3144" d="M214.456,209.482a4.974,4.974,0,1,1-4.974-4.974A4.974,4.974,0,0,1,214.456,209.482Z" transform="translate(-178.112 -178.275)" fill="#eb5729"/>
    </g>
    <g id="Group_120" data-name="Group 120" transform="translate(786.985 6069.65)">
      <path id="Path_428-6" data-name="Path 428" d="M31.394,0A31.394,31.394,0,1,1,0,31.394,31.394,31.394,0,0,1,31.394,0Z" transform="translate(0)" fill="#11293b"/>
      <path id="path2160-6" data-name="path2160" d="M26.483,0A26.483,26.483,0,0,1,13.241,22.935L0,0Z" transform="translate(31.37 31.101) rotate(60)" fill="#eb5729"/>
      <path id="path3138-6" data-name="path3138" d="M26.483,0A26.483,26.483,0,0,1,13.241,22.935L0,0Z" transform="translate(31.37 31.207) rotate(180)" fill="#eb5729"/>
      <path id="path3140-6" data-name="path3140" d="M26.483,0A26.483,26.483,0,0,1,13.241,22.935L0,0Z" transform="translate(31.371 31.206) rotate(-60)" fill="#eb5729"/>
      <path id="path3144-11" data-name="path3144" d="M219.715,212.112a7.6,7.6,0,1,1-7.6-7.6A7.6,7.6,0,0,1,219.715,212.112Z" transform="translate(-180.741 -180.906)" fill="#11293b"/>
      <path id="path3144-12" data-name="path3144" d="M214.456,209.482a4.974,4.974,0,1,1-4.974-4.974A4.974,4.974,0,0,1,214.456,209.482Z" transform="translate(-178.112 -178.275)" fill="#eb5729"/>
    </g>
    <g id="Group_121" data-name="Group 121" transform="translate(753.043 6069.65)">
      <path id="Path_428-7" data-name="Path 428" d="M31.394,0A31.394,31.394,0,1,1,0,31.394,31.394,31.394,0,0,1,31.394,0Z" transform="translate(0)" fill="#11293b"/>
      <path id="path2160-7" data-name="path2160" d="M26.483,0A26.483,26.483,0,0,1,13.241,22.935L0,0Z" transform="translate(31.37 31.101) rotate(60)" fill="#eb5729"/>
      <path id="path3138-7" data-name="path3138" d="M26.483,0A26.483,26.483,0,0,1,13.241,22.935L0,0Z" transform="translate(31.37 31.207) rotate(180)" fill="#eb5729"/>
      <path id="path3140-7" data-name="path3140" d="M26.483,0A26.483,26.483,0,0,1,13.241,22.935L0,0Z" transform="translate(31.371 31.206) rotate(-60)" fill="#eb5729"/>
      <path id="path3144-13" data-name="path3144" d="M219.715,212.112a7.6,7.6,0,1,1-7.6-7.6A7.6,7.6,0,0,1,219.715,212.112Z" transform="translate(-180.741 -180.906)" fill="#11293b"/>
      <path id="path3144-14" data-name="path3144" d="M214.456,209.482a4.974,4.974,0,1,1-4.974-4.974A4.974,4.974,0,0,1,214.456,209.482Z" transform="translate(-178.112 -178.275)" fill="#eb5729"/>
    </g>
    <g id="Group_122" data-name="Group 122" transform="translate(719.957 6069.65)">
      <path id="Path_428-8" data-name="Path 428" d="M31.394,0A31.394,31.394,0,1,1,0,31.394,31.394,31.394,0,0,1,31.394,0Z" transform="translate(0)" fill="#11293b"/>
      <path id="path2160-8" data-name="path2160" d="M26.483,0A26.483,26.483,0,0,1,13.241,22.935L0,0Z" transform="translate(31.37 31.101) rotate(60)" fill="#eb5729"/>
      <path id="path3138-8" data-name="path3138" d="M26.483,0A26.483,26.483,0,0,1,13.241,22.935L0,0Z" transform="translate(31.37 31.207) rotate(180)" fill="#eb5729"/>
      <path id="path3140-8" data-name="path3140" d="M26.483,0A26.483,26.483,0,0,1,13.241,22.935L0,0Z" transform="translate(31.371 31.206) rotate(-60)" fill="#eb5729"/>
      <path id="path3144-15" data-name="path3144" d="M219.715,212.112a7.6,7.6,0,1,1-7.6-7.6A7.6,7.6,0,0,1,219.715,212.112Z" transform="translate(-180.741 -180.906)" fill="#11293b"/>
      <path id="path3144-16" data-name="path3144" d="M214.456,209.482a4.974,4.974,0,1,1-4.974-4.974A4.974,4.974,0,0,1,214.456,209.482Z" transform="translate(-178.112 -178.275)" fill="#eb5729"/>
    </g>
    <g id="Group_123" data-name="Group 123" transform="translate(820.926 6139.997)">
      <path id="Path_428-9" data-name="Path 428" d="M31.394,0A31.394,31.394,0,1,1,0,31.394,31.394,31.394,0,0,1,31.394,0Z" fill="#11293b"/>
      <path id="path2160-9" data-name="path2160" d="M26.483,0A26.483,26.483,0,0,1,13.241,22.935L0,0Z" transform="translate(31.37 31.101) rotate(60)" fill="#eb5729"/>
      <path id="path3138-9" data-name="path3138" d="M26.483,0A26.483,26.483,0,0,1,13.241,22.935L0,0Z" transform="translate(31.37 31.207) rotate(180)" fill="#eb5729"/>
      <path id="path3140-9" data-name="path3140" d="M26.483,0A26.483,26.483,0,0,1,13.241,22.935L0,0Z" transform="translate(31.371 31.206) rotate(-60)" fill="#eb5729"/>
      <path id="path3144-17" data-name="path3144" d="M219.715,212.112a7.6,7.6,0,1,1-7.6-7.6A7.6,7.6,0,0,1,219.715,212.112Z" transform="translate(-180.741 -180.906)" fill="#11293b"/>
      <path id="path3144-18" data-name="path3144" d="M214.456,209.482a4.974,4.974,0,1,1-4.974-4.974A4.974,4.974,0,0,1,214.456,209.482Z" transform="translate(-178.112 -178.275)" fill="#eb5729"/>
    </g>
    <g id="Group_124" data-name="Group 124" transform="translate(786.985 6139.997)">
      <path id="Path_428-10" data-name="Path 428" d="M31.394,0A31.394,31.394,0,1,1,0,31.394,31.394,31.394,0,0,1,31.394,0Z" transform="translate(0)" fill="#11293b"/>
      <path id="path2160-10" data-name="path2160" d="M26.483,0A26.483,26.483,0,0,1,13.241,22.935L0,0Z" transform="translate(31.37 31.101) rotate(60)" fill="#eb5729"/>
      <path id="path3138-10" data-name="path3138" d="M26.483,0A26.483,26.483,0,0,1,13.241,22.935L0,0Z" transform="translate(31.37 31.207) rotate(180)" fill="#eb5729"/>
      <path id="path3140-10" data-name="path3140" d="M26.483,0A26.483,26.483,0,0,1,13.241,22.935L0,0Z" transform="translate(31.371 31.206) rotate(-60)" fill="#eb5729"/>
      <path id="path3144-19" data-name="path3144" d="M219.715,212.112a7.6,7.6,0,1,1-7.6-7.6A7.6,7.6,0,0,1,219.715,212.112Z" transform="translate(-180.741 -180.906)" fill="#11293b"/>
      <path id="path3144-20" data-name="path3144" d="M214.456,209.482a4.974,4.974,0,1,1-4.974-4.974A4.974,4.974,0,0,1,214.456,209.482Z" transform="translate(-178.112 -178.275)" fill="#eb5729"/>
    </g>
    <g id="Group_125" data-name="Group 125" transform="translate(753.043 6139.997)">
      <path id="Path_428-11" data-name="Path 428" d="M31.394,0A31.394,31.394,0,1,1,0,31.394,31.394,31.394,0,0,1,31.394,0Z" transform="translate(0)" fill="#11293b"/>
      <path id="path2160-11" data-name="path2160" d="M26.483,0A26.483,26.483,0,0,1,13.241,22.935L0,0Z" transform="translate(31.37 31.101) rotate(60)" fill="#eb5729"/>
      <path id="path3138-11" data-name="path3138" d="M26.483,0A26.483,26.483,0,0,1,13.241,22.935L0,0Z" transform="translate(31.37 31.207) rotate(180)" fill="#eb5729"/>
      <path id="path3140-11" data-name="path3140" d="M26.483,0A26.483,26.483,0,0,1,13.241,22.935L0,0Z" transform="translate(31.371 31.206) rotate(-60)" fill="#eb5729"/>
      <path id="path3144-21" data-name="path3144" d="M219.715,212.112a7.6,7.6,0,1,1-7.6-7.6A7.6,7.6,0,0,1,219.715,212.112Z" transform="translate(-180.741 -180.906)" fill="#11293b"/>
      <path id="path3144-22" data-name="path3144" d="M214.456,209.482a4.974,4.974,0,1,1-4.974-4.974A4.974,4.974,0,0,1,214.456,209.482Z" transform="translate(-178.112 -178.275)" fill="#eb5729"/>
    </g>
    <g id="Group_126" data-name="Group 126" transform="translate(719.957 6139.997)">
      <path id="Path_428-12" data-name="Path 428" d="M31.394,0A31.394,31.394,0,1,1,0,31.394,31.394,31.394,0,0,1,31.394,0Z" transform="translate(0)" fill="#11293b"/>
      <path id="path2160-12" data-name="path2160" d="M26.483,0A26.483,26.483,0,0,1,13.241,22.935L0,0Z" transform="translate(31.37 31.101) rotate(60)" fill="#eb5729"/>
      <path id="path3138-12" data-name="path3138" d="M26.483,0A26.483,26.483,0,0,1,13.241,22.935L0,0Z" transform="translate(31.37 31.207) rotate(180)" fill="#eb5729"/>
      <path id="path3140-12" data-name="path3140" d="M26.483,0A26.483,26.483,0,0,1,13.241,22.935L0,0Z" transform="translate(31.371 31.206) rotate(-60)" fill="#eb5729"/>
      <path id="path3144-23" data-name="path3144" d="M219.715,212.112a7.6,7.6,0,1,1-7.6-7.6A7.6,7.6,0,0,1,219.715,212.112Z" transform="translate(-180.741 -180.906)" fill="#11293b"/>
      <path id="path3144-24" data-name="path3144" d="M214.456,209.482a4.974,4.974,0,1,1-4.974-4.974A4.974,4.974,0,0,1,214.456,209.482Z" transform="translate(-178.112 -178.275)" fill="#eb5729"/>
    </g>
    <g id="Group_127" data-name="Group 127" transform="translate(685.802 5999.305)">
      <path id="Path_428-13" data-name="Path 428" d="M31.394,0A31.394,31.394,0,1,1,0,31.394,31.394,31.394,0,0,1,31.394,0Z" transform="translate(0)" fill="#11293b"/>
      <path id="path2160-13" data-name="path2160" d="M26.483,0A26.483,26.483,0,0,1,13.241,22.935L0,0Z" transform="translate(31.37 31.101) rotate(60)" fill="#eb5729"/>
      <path id="path3138-13" data-name="path3138" d="M26.483,0A26.483,26.483,0,0,1,13.241,22.935L0,0Z" transform="translate(31.37 31.207) rotate(180)" fill="#eb5729"/>
      <path id="path3140-13" data-name="path3140" d="M26.483,0A26.483,26.483,0,0,1,13.241,22.935L0,0Z" transform="translate(31.371 31.206) rotate(-60)" fill="#eb5729"/>
      <path id="path3144-25" data-name="path3144" d="M219.715,212.112a7.6,7.6,0,1,1-7.6-7.6A7.6,7.6,0,0,1,219.715,212.112Z" transform="translate(-180.741 -180.906)" fill="#11293b"/>
      <path id="path3144-26" data-name="path3144" d="M214.456,209.482a4.974,4.974,0,1,1-4.974-4.974A4.974,4.974,0,0,1,214.456,209.482Z" transform="translate(-178.112 -178.275)" fill="#eb5729"/>
    </g>
    <g id="Group_128" data-name="Group 128" transform="translate(685.802 6069.649)">
      <path id="Path_428-14" data-name="Path 428" d="M31.394,0A31.394,31.394,0,1,1,0,31.394,31.394,31.394,0,0,1,31.394,0Z" transform="translate(0)" fill="#11293b"/>
      <path id="path2160-14" data-name="path2160" d="M26.483,0A26.483,26.483,0,0,1,13.241,22.935L0,0Z" transform="translate(31.37 31.101) rotate(60)" fill="#eb5729"/>
      <path id="path3138-14" data-name="path3138" d="M26.483,0A26.483,26.483,0,0,1,13.241,22.935L0,0Z" transform="translate(31.37 31.207) rotate(180)" fill="#eb5729"/>
      <path id="path3140-14" data-name="path3140" d="M26.483,0A26.483,26.483,0,0,1,13.241,22.935L0,0Z" transform="translate(31.371 31.206) rotate(-60)" fill="#eb5729"/>
      <path id="path3144-27" data-name="path3144" d="M219.715,212.112a7.6,7.6,0,1,1-7.6-7.6A7.6,7.6,0,0,1,219.715,212.112Z" transform="translate(-180.741 -180.906)" fill="#11293b"/>
      <path id="path3144-28" data-name="path3144" d="M214.456,209.482a4.974,4.974,0,1,1-4.974-4.974A4.974,4.974,0,0,1,214.456,209.482Z" transform="translate(-178.112 -178.275)" fill="#eb5729"/>
    </g>
    <g id="Group_129" data-name="Group 129" transform="translate(685.802 6139.996)">
      <path id="Path_428-15" data-name="Path 428" d="M31.394,0A31.394,31.394,0,1,1,0,31.394,31.394,31.394,0,0,1,31.394,0Z" transform="translate(0)" fill="#11293b"/>
      <path id="path2160-15" data-name="path2160" d="M26.483,0A26.483,26.483,0,0,1,13.241,22.935L0,0Z" transform="translate(31.37 31.101) rotate(60)" fill="#eb5729"/>
      <path id="path3138-15" data-name="path3138" d="M26.483,0A26.483,26.483,0,0,1,13.241,22.935L0,0Z" transform="translate(31.37 31.207) rotate(180)" fill="#eb5729"/>
      <path id="path3140-15" data-name="path3140" d="M26.483,0A26.483,26.483,0,0,1,13.241,22.935L0,0Z" transform="translate(31.371 31.206) rotate(-60)" fill="#eb5729"/>
      <path id="path3144-29" data-name="path3144" d="M219.715,212.112a7.6,7.6,0,1,1-7.6-7.6A7.6,7.6,0,0,1,219.715,212.112Z" transform="translate(-180.741 -180.906)" fill="#11293b"/>
      <path id="path3144-30" data-name="path3144" d="M214.456,209.482a4.974,4.974,0,1,1-4.974-4.974A4.974,4.974,0,0,1,214.456,209.482Z" transform="translate(-178.112 -178.275)" fill="#eb5729"/>
    </g>
  </g>
</svg>
