<svg width="138" height="135" viewBox="0 0 138 135" fill="none" xmlns="http://www.w3.org/2000/svg">
<g clip-path="url(#clip0_205_22)">
<path d="M67.1949 134.197C104.306 134.197 134.39 104.156 134.39 67.0984C134.39 30.041 104.306 0 67.1949 0C30.0842 0 0 30.041 0 67.0984C0 104.156 30.0842 134.197 67.1949 134.197Z" fill="#11293B"/>
<path d="M95.4858 115.49C86.8689 120.458 77.0942 123.073 67.1444 123.073C57.1945 123.073 47.4199 120.458 38.8031 115.49L67.144 66.4714L95.4858 115.49Z" fill="#EB5729"/>
<path d="M10.4613 66.6985C10.4615 56.7629 13.0807 47.0024 18.0557 38.3979C23.0307 29.7935 30.1862 22.6483 38.8031 17.6805L67.1448 66.6985H10.4613Z" fill="#EB5729"/>
<path d="M95.4871 17.6788C104.104 22.6467 111.259 29.792 116.234 38.3966C121.209 47.0011 123.828 56.7617 123.828 66.6973L67.1454 66.6977L95.4871 17.6788Z" fill="#EB5729"/>
<path d="M83.4192 66.6975C83.4192 69.9118 82.4647 73.0539 80.6763 75.7265C78.888 78.3991 76.3461 80.4821 73.3722 81.7122C70.3983 82.9422 67.1259 83.264 63.9689 82.6369C60.8118 82.0098 57.9119 80.462 55.6358 78.1891C53.3597 75.9162 51.8096 73.0204 51.1817 69.8679C50.5537 66.7153 50.8761 63.4476 52.1079 60.478C53.3398 57.5084 55.4259 54.9702 58.1023 53.1845C60.7788 51.3988 63.9254 50.4457 67.1444 50.4457C69.2816 50.4457 71.398 50.8661 73.3725 51.6828C75.3471 52.4995 77.1412 53.6966 78.6525 55.2058C80.1638 56.7149 81.3625 58.5065 82.1804 60.4782C82.9983 62.45 83.4192 64.5633 83.4192 66.6975V66.6975Z" fill="#11293B"/>
<path d="M77.7905 66.6986C77.7903 68.8013 77.1658 70.8566 75.9958 72.6048C74.8258 74.353 73.163 75.7154 71.2176 76.5199C69.2722 77.3244 67.1316 77.5348 65.0664 77.1244C63.0013 76.7141 61.1043 75.7014 59.6156 74.2145C58.1268 72.7276 57.1129 70.8333 56.7023 68.7711C56.2917 66.7088 56.5027 64.5713 57.3086 62.6288C58.1145 60.6863 59.4792 59.026 61.2301 57.858C62.981 56.69 65.0394 56.0667 67.145 56.0668C68.5431 56.0669 69.9275 56.342 71.2191 56.8764C72.5107 57.4107 73.6843 58.1939 74.6728 59.1811C75.6613 60.1684 76.4455 61.3404 76.9804 62.6303C77.5153 63.9201 77.7906 65.3026 77.7905 66.6986Z" fill="#EB5729"/>
</g>
<defs>
<clipPath id="clip0_205_22">
<rect width="138" height="135" fill="white"/>
</clipPath>
</defs>
</svg>
