<svg xmlns="http://www.w3.org/2000/svg" xmlns:xlink="http://www.w3.org/1999/xlink" width="504.987" height="109.367" viewBox="0 0 504.987 109.367">
  <defs>
    <linearGradient id="linear-gradient" x1="0.5" x2="0.5" y2="1" gradientUnits="objectBoundingBox">
      <stop offset="0" stop-color="#ea7652"/>
      <stop offset="1" stop-color="#ffad93"/>
    </linearGradient>
    <linearGradient id="linear-gradient-12" x1="0.34" y1="-0.265" x2="0.75" y2="0.377" gradientUnits="objectBoundingBox">
      <stop offset="0" stop-color="#ed7d5b"/>
      <stop offset="1" stop-color="#ffad93"/>
    </linearGradient>
    <linearGradient id="linear-gradient-24" x1="0.61" y1="-0.113" x2="0.75" y2="0.377" xlink:href="#linear-gradient-12"/>
    <linearGradient id="linear-gradient-25" x1="0.189" y1="0.253" x2="0.572" y2="0.736" xlink:href="#linear-gradient-12"/>
  </defs>
  <g id="Roadmap" transform="translate(-708.32 -8951.06)">
    <path id="Path_537" data-name="Path 537" d="M-181.875-79.75a12.43,12.43,0,0,0-12.375-12.5H-242V0h21.125V-35.625h12.75a5.282,5.282,0,0,1,5.25,5.25V0h21V-33.75A23.208,23.208,0,0,0-189-50.5a36.648,36.648,0,0,0,7.125-21.875Zm-39,23.125V-71.25h18V-71A14.377,14.377,0,0,1-217.25-56.625ZM-124.25-92.25H-159.5a12.43,12.43,0,0,0-12.375,12.5V-12.5A12.43,12.43,0,0,0-159.5,0h35.25a12.537,12.537,0,0,0,12.5-12.5V-79.75A12.537,12.537,0,0,0-124.25-92.25Zm-8.5,71.125h-18.125v-50h18.125Zm78.625-71h-35.25a12.351,12.351,0,0,0-12.375,12.5V0h21V-34.375h18.125V0h21V-79.625A12.457,12.457,0,0,0-54.125-92.125ZM-80.75-55.375v-15.75h18.125v15.75Zm96.875-36.75h-47.75V0h47.75a12.537,12.537,0,0,0,12.5-12.5V-79.625A12.457,12.457,0,0,0,16.125-92.125ZM7.5-21h-18V-71.125h18ZM80.625-92.125v4.5a7.261,7.261,0,0,1-2,5.25l-8.5,7.625-8.5-7.625a7.592,7.592,0,0,1-2-5.25v-4.5h-21V0h21V-58.25l10.5,12.125,10.5-11.625V0h21V-92.125Zm78.625,0H124a12.351,12.351,0,0,0-12.375,12.5V0h21V-34.375H150.75V0h21V-79.625A12.457,12.457,0,0,0,159.25-92.125Zm-26.625,36.75v-15.75H150.75v15.75ZM229.5-92.25H181.75V0h21.125V-35.625h2.375A36.729,36.729,0,0,0,242-72.375V-79.75A12.537,12.537,0,0,0,229.5-92.25ZM220.875-71a14.351,14.351,0,0,1-14.25,14.375h-3.75V-71.25h18Z" transform="translate(960 9059)" fill="#ffad93"/>
    <path id="Path_472" data-name="Path 472" d="M21705.8,2925.938l1.75,12.067h-20.988l-2.605-12.067Z" transform="translate(-20789.133 6121.057)" fill="url(#linear-gradient)"/>
    <path id="Path_473" data-name="Path 473" d="M21733.994,2925.938v11.66l-49.551.406-1.2-12.067Z" transform="translate(-20756.133 6121.057)" fill="url(#linear-gradient)"/>
    <path id="Path_474" data-name="Path 474" d="M21685.367,2925.895l-1.645,12.109h21.09l2.348-12.109Z" transform="translate(-20685.133 6121.057)" fill="url(#linear-gradient)"/>
    <path id="Path_475" data-name="Path 475" d="M21685.945,2925.895l-3.191,12.109,21.037-.2,4.008-11.908Z" transform="translate(-20642.133 6121.057)" fill="url(#linear-gradient)"/>
    <path id="Path_476" data-name="Path 476" d="M21686.266,2925.895l-4.5,12.138h20.928l5.32-12.138Z" transform="translate(-20610.133 6121.057)" fill="url(#linear-gradient)"/>
    <path id="Path_477" data-name="Path 477" d="M21686.881,2925.895l-5.963,12.138h20.91l6.91-12.138Z" transform="translate(-20570.133 6121.057)" fill="url(#linear-gradient)"/>
    <path id="Path_478" data-name="Path 478" d="M21687.176,2925.895l-7.3,12.138h21.053l8.086-12.138Z" transform="translate(-20538.133 6121.057)" fill="url(#linear-gradient)"/>
    <path id="Path_479" data-name="Path 479" d="M21703.861,2925.895l7.359,12.138H21690.3l-8.26-12.138Z" transform="translate(-20933.135 6121.028)" fill="url(#linear-gradient)"/>
    <path id="Path_480" data-name="Path 480" d="M21704.363,2925.895l8.656,12.138h-20.965l-9.49-12.138Z" transform="translate(-20974.135 6121.028)" fill="url(#linear-gradient)"/>
    <path id="Path_538" data-name="Path 538" d="M-189.15-82.94a12.927,12.927,0,0,0-12.87-13h-49.66V0h21.97V-37.05h13.26a5.493,5.493,0,0,1,5.46,5.46V0h21.84V-35.1a24.136,24.136,0,0,0-7.41-17.42,38.114,38.114,0,0,0,7.41-22.75Zm-40.56,24.05V-74.1h18.72v.26a14.952,14.952,0,0,1-14.95,14.95Zm100.49-37.05h-36.66a12.927,12.927,0,0,0-12.87,13V-13A12.927,12.927,0,0,0-165.88,0h36.66a13.038,13.038,0,0,0,13-13V-82.94A13.038,13.038,0,0,0-129.22-95.94Zm-8.84,73.97h-18.85v-52h18.85Zm81.77-73.84H-92.95a12.845,12.845,0,0,0-12.87,13V0h21.84V-35.75h18.85V0h21.84V-82.81A12.955,12.955,0,0,0-56.29-95.81ZM-83.98-57.59V-73.97h18.85v16.38ZM16.77-95.81H-32.89V0H16.77a13.038,13.038,0,0,0,13-13V-82.81A12.955,12.955,0,0,0,16.77-95.81ZM7.8-21.84H-10.92V-73.97H7.8ZM83.85-95.81v4.68a7.551,7.551,0,0,1-2.08,5.46l-8.84,7.93-8.84-7.93a7.9,7.9,0,0,1-2.08-5.46v-4.68H40.17V0H62.01V-60.58L72.93-47.97,83.85-60.06V0h21.84V-95.81Zm81.77,0H128.96a12.845,12.845,0,0,0-12.87,13V0h21.84V-35.75h18.85V0h21.84V-82.81A12.955,12.955,0,0,0,165.62-95.81ZM137.93-57.59V-73.97h18.85v16.38ZM238.68-95.94H189.02V0h21.97V-37.05h2.47a38.2,38.2,0,0,0,38.22-38.22v-7.67A13.038,13.038,0,0,0,238.68-95.94Zm-8.97,22.1a14.925,14.925,0,0,1-14.82,14.95h-3.9V-74.1h18.72Z" transform="translate(960 9047)" fill="#eb5729"/>
    <path id="Path_471" data-name="Path 471" d="M21706.129,2925.938l3.285,12.067h-21.08l-4.033-12.1Z" transform="translate(-20830.133 6121.057)" fill="url(#linear-gradient)"/>
    <path id="Path_345" data-name="Path 345" d="M21727.629,2923.073a13.015,13.015,0,0,0,5.8-.874c2.3-1.161,2.916-1.049,2.916-1.049l-1.148,13.971-5.053.051h-6.057l-20.008-.051s-6.51.242-9.932-2.364-11.889-14.362-11.889-14.362a12.648,12.648,0,0,0,5.518,3.8,11.188,11.188,0,0,0,5.623.874C21694.742,2923.1,21727.629,2923.073,21727.629,2923.073Z" transform="translate(-20898.094 6123.889)" fill="url(#linear-gradient)"/>
    <path id="Path_346" data-name="Path 346" d="M7.988,2.283a14.989,14.989,0,0,0,6.24-2.421l.584,7.563s-4.123,5.187-6.272,6.19A11.313,11.313,0,0,1,1.8,14.845a16.644,16.644,0,0,1-5.129-1.857L2.059,1.338A15.576,15.576,0,0,0,7.988,2.283Z" transform="matrix(0.799, -0.602, 0.602, 0.799, 831.927, 9046.479)" fill="url(#linear-gradient-12)"/>
    <path id="Path_481" data-name="Path 481" d="M21705.1,2925.993l-.08,14.9h-12.766l-6.154-15Z" transform="translate(-20883.135 6047.028)" fill="url(#linear-gradient)"/>
    <path id="Path_482" data-name="Path 482" d="M21705.168,2925.979l-.033,14.918H21689.5l-3.234-14.918Z" transform="translate(-20810.281 6047.028)" fill="url(#linear-gradient)"/>
    <path id="Path_483" data-name="Path 483" d="M21705.168,2925.979l-.367,14.918h-18.029l-.5-14.918Z" transform="translate(-20737.281 6047.028)" fill="url(#linear-gradient)"/>
    <path id="Path_484" data-name="Path 484" d="M21705.168,2925.979l-6.238,14.918h-12.66l-.146-14.918Z" transform="translate(-20588.281 6047.028)" fill="url(#linear-gradient)"/>
    <path id="Path_485" data-name="Path 485" d="M21705.039,2925.821s.18,6.317-3.568,9.99a21.289,21.289,0,0,1-8.016,4.917h-7.2v-14.907Z" transform="translate(-20515.281 6047.028)" fill="url(#linear-gradient)"/>
    <path id="Path_486" data-name="Path 486" d="M21705.168,2925.979l-6.094,13.69h-12.951v-13.69Z" transform="translate(-20588.281 6085.028)" fill="url(#linear-gradient)"/>
    <path id="Path_487" data-name="Path 487" d="M21697.08,2913.893l-3.09,14.155-10.631,11.635,2.764-13.7Z" transform="translate(-20653.281 6073.028)" fill="url(#linear-gradient)"/>
    <path id="Path_488" data-name="Path 488" d="M21683.217,2913.31l.094,17.155,8.053,9.351,2.795-13.879Z" transform="translate(-20661.279 6073.028)" fill="url(#linear-gradient)"/>
    <path id="Path_489" data-name="Path 489" d="M21705.379,2925.821s.129,7.21-4.482,10.974a19.929,19.929,0,0,1-9.965,4.187h-4.674v-15.16Z" transform="translate(-20956.281 6047.028)" fill="url(#linear-gradient)"/>
    <path id="Path_490" data-name="Path 490" d="M21690.7,2925.979a6.571,6.571,0,0,1,4.293,1.945,4.739,4.739,0,0,1,1.227,3.9v7.849h-9.824l-8.947-13.69Z" transform="translate(-20947.238 6083.732)" fill="url(#linear-gradient)"/>
    <path id="Path_491" data-name="Path 491" d="M21705.295,2927.471l-.16,13.426h-15.582l-3.145-13.426Z" transform="translate(-20810.346 6083.732)" fill="url(#linear-gradient)"/>
    <path id="Path_492" data-name="Path 492" d="M10.646,3.114A12.856,12.856,0,0,0,19.012-.7L9.95,9.276s-3.969,2.718-7.613,3.115a12.842,12.842,0,0,1-6.963-1.528l7.236-9.6S5.07,3.616,10.646,3.114Z" transform="matrix(0.799, -0.602, 0.602, 0.799, 974.927, 9047.479)" fill="url(#linear-gradient-24)"/>
    <path id="Path_493" data-name="Path 493" d="M45.953,5.874S29.707,13.9,17.238,15.148A35.779,35.779,0,0,1-3.925,10.883L3.944.44a36.448,36.448,0,0,0,19.38,8.786C29.366,10.067,37.229,9.016,45.953,5.874Z" transform="matrix(0.799, -0.602, 0.602, 0.799, 1167.38, 9011.848)" fill="url(#linear-gradient-25)"/>
    <path id="Path_494" data-name="Path 494" d="M21440.164,2830.063l-7.3,15.61,2.551,9.236,4.791-.461Z" transform="translate(-20291.133 6121)" fill="#ffad93"/>
    <path id="Path_495" data-name="Path 495" d="M21440.313,2830.116l-1.574,15.752.945,8.621.629-2.426Z" transform="translate(-20440.133 6121)" fill="#ffad93"/>
    <path id="Path_496" data-name="Path 496" d="M-1394.716,9830.5l4.739-16.281a13.159,13.159,0,0,0-.673,4.387v6.127Z" transform="translate(2466.726 -854.432)" fill="#ffad93"/>
    <path id="Path_497" data-name="Path 497" d="M-1387.118,9827.389l-8.367-17.471a16.146,16.146,0,0,1,1.863,7.146c-.021,3.816.109,7.9.109,7.9Z" transform="translate(2164.416 -852.781)" fill="#ffad93"/>
    <path id="Path_498" data-name="Path 498" d="M-1389.8,9827.217l-4.6-15.832a17.223,17.223,0,0,1,.72,5.738c-.021,3.816.168,7.846.168,7.846Z" transform="translate(2237.416 -851.781)" fill="#ffad93"/>
    <path id="Path_499" data-name="Path 499" d="M-1392.056,9829.359l-1.884-17.012s.054.908.119,2.1,0,2.932.063,4.488c.031,5.891.079,5.875.079,5.875Z" transform="translate(2310.416 -850.781)" fill="#ffad93"/>
  </g>
</svg>
