<svg id="Group_37" data-name="Group 37" xmlns="http://www.w3.org/2000/svg" xmlns:xlink="http://www.w3.org/1999/xlink" width="264.116" height="265.219" viewBox="0 0 264.116 265.219">
  <defs>
    <clipPath id="clip-path">
      <rect id="Rectangle_84" data-name="Rectangle 84" width="264.116" height="265.219" fill="none"/>
    </clipPath>
  </defs>
  <path id="Path_470" data-name="Path 470" d="M6.24,0V-1.11a1.859,1.859,0,0,1,.48-1.23L8.43-4.2l1.68,1.86a1.859,1.859,0,0,1,.48,1.23V0h5.04V-22.14H10.59V-8.16L8.43-11.07,6.24-8.28V-22.14H1.2V0Z" transform="translate(86.134 35.174) rotate(-20.485)" fill="#eb5729"/>
  <g id="Group_30" data-name="Group 30">
    <g id="Group_29" data-name="Group 29" clip-path="url(#clip-path)">
      <path id="Path_469" data-name="Path 469" d="M12.63-22.11H4.17a2.964,2.964,0,0,0-2.97,3V0H6.24V-8.25h4.35V0h5.04V-19.11A2.99,2.99,0,0,0,12.63-22.11ZM6.24-13.29v-3.78h4.35v3.78Z" transform="matrix(0.979, -0.205, 0.205, 0.979, 101.187, 29.49)" fill="#eb5729"/>
      <path id="Path_468" data-name="Path 468" d="M15.6-22.14H1.2v5.04H5.88V0h5.07V-17.1H15.6Z" transform="matrix(0.998, -0.057, 0.057, 0.998, 116.961, 26.136)" fill="#eb5729"/>
      <path id="Path_467" data-name="Path 467" d="M15.63-14.85v-4.26a2.99,2.99,0,0,0-3-3H4.17a2.964,2.964,0,0,0-2.97,3V-3A2.983,2.983,0,0,0,4.17,0h8.46a3.009,3.009,0,0,0,3-3V-7.26H10.56v2.22H6.24V-17.07h4.32v2.22Z" transform="translate(133.017 25.171) rotate(5.233)" fill="#eb5729"/>
      <path id="Path_466" data-name="Path 466" d="M10.56-22.11v8.52H6.24v-8.52H1.2V0H6.24V-8.55h4.32V0H15.6V-22.11Z" transform="matrix(0.971, 0.239, -0.239, 0.971, 149.07, 26.587)" fill="#eb5729"/>
    </g>
  </g>
  <path id="Path_461" data-name="Path 461" transform="translate(164.81 30.698) rotate(20.11)" fill="#eb5729"/>
  <path id="Path_460" data-name="Path 460" d="M12.63-22.11H4.17a2.964,2.964,0,0,0-2.97,3V0H6.24V-8.25h4.35V0h5.04V-19.11A2.99,2.99,0,0,0,12.63-22.11ZM6.24-13.29v-3.78h4.35v3.78Z" transform="matrix(0.896, 0.444, -0.444, 0.896, 171.46, 32.832)" fill="#eb5729"/>
  <path id="Path_459" data-name="Path 459" d="M10.59-22.14v4.32L6.24-22.14H1.2V0H6.24V-15.63l3.18,3.21a4.016,4.016,0,0,1,1.17,2.85V0h5.04V-22.14Z" transform="translate(185.923 39.94) rotate(34.967)" fill="#eb5729"/>
  <path id="Path_458" data-name="Path 458" d="M12.66-22.11H1.2V0H12.66a3.009,3.009,0,0,0,3-3V-19.11A2.99,2.99,0,0,0,12.66-22.11ZM10.59-5.04H6.27V-17.07h4.32Z" transform="translate(199.148 49.122) rotate(43.527)" fill="#eb5729"/>
  <path id="Path_457" data-name="Path 457" transform="translate(210.833 60.529) rotate(49.72)" fill="#eb5729"/>
  <path id="Path_456" data-name="Path 456" d="M12.66-22.11H1.2V0H12.66a3.009,3.009,0,0,0,3-3V-19.11A2.99,2.99,0,0,0,12.66-22.11ZM10.59-5.04H6.27V-17.07h4.32Z" transform="matrix(0.56, 0.828, -0.828, 0.56, 215.556, 65.667)" fill="#eb5729"/>
  <path id="Path_455" data-name="Path 455" d="M8.7-17.07v-5.04H1.2v5.04H2.43V-5.04H1.2V0H8.7V-5.04H7.47V-17.07Z" transform="translate(224.535 79.242) rotate(62.758)" fill="#eb5729"/>
  <path id="Path_454" data-name="Path 454" d="M12.66-13.59H6.24V-17.1h9.39v-5.04H4.2a3.009,3.009,0,0,0-3,3v7.59a3.009,3.009,0,0,0,3,3h6.39v3.48H1.2V0H12.66a2.983,2.983,0,0,0,2.97-3v-7.59A2.964,2.964,0,0,0,12.66-13.59Z" transform="translate(229.02 87.426) rotate(69.625)" fill="#eb5729"/>
  <g id="Group_32" data-name="Group 32">
    <g id="Group_31" data-name="Group 31" clip-path="url(#clip-path)">
      <path id="Path_465" data-name="Path 465" d="M15.63-14.85v-4.26a2.99,2.99,0,0,0-3-3H4.17a2.964,2.964,0,0,0-2.97,3V-3A2.983,2.983,0,0,0,4.17,0h8.46a3.009,3.009,0,0,0,3-3V-7.26H10.56v2.22H6.24V-17.07h4.32v2.22Z" transform="translate(234.681 102.513) rotate(78.29)" fill="#eb5729"/>
      <path id="Path_464" data-name="Path 464" d="M12.63-22.14H4.17a2.983,2.983,0,0,0-2.97,3V-3A2.983,2.983,0,0,0,4.17,0h8.46a3.009,3.009,0,0,0,3-3V-19.14A3.009,3.009,0,0,0,12.63-22.14ZM10.59-5.07H6.24v-12h4.35Z" transform="translate(237.999 118.264) rotate(86.871)" fill="#eb5729"/>
      <path id="Path_463" data-name="Path 463" d="M10.53-22.14V-7.05L8.4-5.7,6.27-7.05V-22.14H1.2V-5.25L8.4,0l7.2-5.25V-22.14Z" transform="matrix(-0.093, 0.996, -0.996, -0.093, 238.932, 134.372)" fill="#eb5729"/>
      <path id="Path_462" data-name="Path 462" d="M6.27-5.04V-7.29A1.242,1.242,0,0,1,7.5-8.55h3.9v-5.04H7.5a1.224,1.224,0,0,1-1.23-1.26v-2.22l9.39-.09v-4.95H4.2a2.99,2.99,0,0,0-3,3v1.77a8.82,8.82,0,0,0,1.74,5.25A5.476,5.476,0,0,0,1.2-8.1V-3a3.009,3.009,0,0,0,3,3H15.66V-5.04Z" transform="translate(237.488 150.394) rotate(103.982)" fill="#eb5729"/>
    </g>
  </g>
  <path id="Path_453" data-name="Path 453" d="M15.63-19.14a2.983,2.983,0,0,0-2.97-3H1.2V0H6.27V-8.55H9.33a1.268,1.268,0,0,1,1.26,1.26V0h5.04V-8.1a5.57,5.57,0,0,0-1.71-4.02,8.8,8.8,0,0,0,1.71-5.25ZM6.27-13.59V-17.1h4.32v.06a3.45,3.45,0,0,1-3.45,3.45Z" transform="translate(233.641 166.066) rotate(112.652)" fill="#eb5729"/>
  <path id="Path_452" data-name="Path 452" transform="matrix(-0.483, 0.876, -0.876, -0.483, 227.164, 181.004)" fill="#eb5729"/>
  <path id="Path_451" data-name="Path 451" d="M15.6-22.14H1.2v5.04H5.88V0h5.07V-17.1H15.6Z" transform="translate(224.037 187.251) rotate(125.095)" fill="#eb5729"/>
  <path id="Path_450" data-name="Path 450" d="M10.56-22.11v8.52H6.24v-8.52H1.2V0H6.24V-8.55h4.32V0H15.6V-22.11Z" transform="matrix(-0.69, 0.724, -0.724, -0.69, 214.825, 200.449)" fill="#eb5729"/>
  <path id="Path_449" data-name="Path 449" d="M6.27-5.04V-7.29A1.242,1.242,0,0,1,7.5-8.55h3.9v-5.04H7.5a1.224,1.224,0,0,1-1.23-1.26v-2.22l9.39-.09v-4.95H4.2a2.99,2.99,0,0,0-3,3v1.77a8.82,8.82,0,0,0,1.74,5.25A5.476,5.476,0,0,0,1.2-8.1V-3a3.009,3.009,0,0,0,3,3H15.66V-5.04Z" transform="matrix(-0.79, 0.613, -0.613, -0.79, 203.756, 212.134)" fill="#eb5729"/>
  <path id="Path_448" data-name="Path 448" transform="matrix(-0.852, 0.524, -0.524, -0.852, 190.723, 221.959)" fill="#eb5729"/>
  <path id="Path_447" data-name="Path 447" d="M10.59-22.14v4.32L6.24-22.14H1.2V0H6.24V-15.63l3.18,3.21a4.016,4.016,0,0,1,1.17,2.85V0h5.04V-22.14Z" transform="matrix(-0.904, 0.428, -0.428, -0.904, 184.922, 225.857)" fill="#eb5729"/>
  <g id="Group_34" data-name="Group 34">
    <g id="Group_33" data-name="Group 33" clip-path="url(#clip-path)">
      <path id="Path_446" data-name="Path 446" d="M6.27-5.04V-7.29A1.242,1.242,0,0,1,7.5-8.55h3.9v-5.04H7.5a1.224,1.224,0,0,1-1.23-1.26v-2.22l9.39-.09v-4.95H4.2a2.99,2.99,0,0,0-3,3v1.77a8.82,8.82,0,0,0,1.74,5.25A5.476,5.476,0,0,0,1.2-8.1V-3a3.009,3.009,0,0,0,3,3H15.66V-5.04Z" transform="translate(170.406 232.801) rotate(163.3)" fill="#eb5729"/>
      <path id="Path_445" data-name="Path 445" d="M6.24,0V-1.11a1.859,1.859,0,0,1,.48-1.23L8.43-4.2l1.68,1.86a1.859,1.859,0,0,1,.48,1.23V0h5.04V-22.14H10.59V-8.16L8.43-11.07,6.24-8.28V-22.14H1.2V0Z" transform="translate(154.959 237.489) rotate(171.955)" fill="#eb5729"/>
      <path id="Path_444" data-name="Path 444" transform="translate(138.789 239.546) rotate(178.141)" fill="#eb5729"/>
      <path id="Path_443" data-name="Path 443" d="M15.63-14.85v-4.26a2.99,2.99,0,0,0-3-3H4.17a2.964,2.964,0,0,0-2.97,3V-3A2.983,2.983,0,0,0,4.17,0h8.46a3.009,3.009,0,0,0,3-3V-7.26H10.56v2.22H6.24V-17.07h4.32v2.22Z" transform="translate(131.821 240.052) rotate(-175.739)" fill="#eb5729"/>
      <path id="Path_442" data-name="Path 442" d="M12.63-22.14H4.17a2.983,2.983,0,0,0-2.97,3V-3A2.983,2.983,0,0,0,4.17,0h8.46a3.009,3.009,0,0,0,3-3V-19.14A3.009,3.009,0,0,0,12.63-22.14ZM10.59-5.07H6.24v-12h4.35Z" transform="translate(115.756 238.913) rotate(-167.136)" fill="#eb5729"/>
    </g>
  </g>
  <path id="Path_441" data-name="Path 441" d="M6.27-5.04V-22.11H1.2V-3a3.009,3.009,0,0,0,3,3H15.66V-5.04Z" transform="translate(100.028 235.377) rotate(-158.457)" fill="#eb5729"/>
  <path id="Path_440" data-name="Path 440" d="M6.27-5.04V-22.11H1.2V-3a3.009,3.009,0,0,0,3,3H15.66V-5.04Z" transform="translate(84.995 229.5) rotate(-149.808)" fill="#eb5729"/>
  <path id="Path_439" data-name="Path 439" d="M6.27-5.04V-7.29A1.242,1.242,0,0,1,7.5-8.55h3.9v-5.04H7.5a1.224,1.224,0,0,1-1.23-1.26v-2.22l9.39-.09v-4.95H4.2a2.99,2.99,0,0,0-3,3v1.77a8.82,8.82,0,0,0,1.74,5.25A5.476,5.476,0,0,0,1.2-8.1V-3a3.009,3.009,0,0,0,3,3H15.66V-5.04Z" transform="matrix(-0.78, -0.626, 0.626, -0.78, 71.026, 221.434)" fill="#eb5729"/>
  <path id="Path_438" data-name="Path 438" d="M15.63-14.85v-4.26a2.99,2.99,0,0,0-3-3H4.17a2.964,2.964,0,0,0-2.97,3V-3A2.983,2.983,0,0,0,4.17,0h8.46a3.009,3.009,0,0,0,3-3V-7.26H10.56v2.22H6.24V-17.07h4.32v2.22Z" transform="translate(58.399 211.355) rotate(-132.652)" fill="#eb5729"/>
  <path id="Path_437" data-name="Path 437" d="M15.6-22.14H1.2v5.04H5.88V0h5.07V-17.1H15.6Z" transform="translate(47.429 199.522) rotate(-124.085)" fill="#eb5729"/>
  <path id="Path_436" data-name="Path 436" d="M8.7-17.07v-5.04H1.2v5.04H2.43V-5.04H1.2V0H8.7V-5.04H7.47V-17.07Z" transform="translate(38.499 186.025) rotate(-117.274)" fill="#eb5729"/>
  <g id="Group_36" data-name="Group 36">
    <g id="Group_35" data-name="Group 35" clip-path="url(#clip-path)">
      <path id="Path_435" data-name="Path 435" d="M12.63-22.14H4.17a2.983,2.983,0,0,0-2.97,3V-3A2.983,2.983,0,0,0,4.17,0h8.46a3.009,3.009,0,0,0,3-3V-19.14A3.009,3.009,0,0,0,12.63-22.14ZM10.59-5.07H6.24v-12h4.35Z" transform="matrix(-0.349, -0.937, 0.937, -0.349, 33.999, 177.825)" fill="#eb5729"/>
      <path id="Path_434" data-name="Path 434" d="M10.59-22.14v4.32L6.24-22.14H1.2V0H6.24V-15.63l3.18,3.21a4.016,4.016,0,0,1,1.17,2.85V0h5.04V-22.14Z" transform="translate(28.339 162.76) rotate(-101.744)" fill="#eb5729"/>
    </g>
  </g>
</svg>
