<svg xmlns="http://www.w3.org/2000/svg" width="218.198" height="57.828" viewBox="0 0 218.198 57.828">
  <g id="Stake_here" data-name="Stake here" transform="translate(-223.808 -8360.499)">
    <rect id="Rectangle_124" data-name="Rectangle 124" width="218.198" height="57.828" rx="28.914" transform="translate(223.808 8360.499)" fill="#11293b"/>
    <path id="Path_560" data-name="Path 560" d="M-76.224,1.3h12.665V-1.829H-76.224ZM-60.4-14.511H-73.068v3.124H-60.4Zm-12.665,3.124h-.018l.018.018Zm9.527,6.336c0-1.042,0-2.082,0-3.114h-9.546c0,1.042,0,2.082,0,3.114Zm0,3.222c0-.006,0-.012,0-.018h-.018l.018.018Zm3.135-.018V-5.032h-3.119q-.009,1.593-.016,3.185Zm-3.119-3.185c0-.006,0-.012,0-.019l-.014.015.014-.016h-.017v.019Zm-9.543-6.337-.018-.018c0,.006,0,.012,0,.018Zm-.021,3.188-.014.016h.017v-.019H-73.1c0,.006,0,.012,0,.019Zm-3.132,0H-73.1q.009-1.593.016-3.185h-3.135c0,1.091,0,2.1,0,3.185Zm16.675-6.326v3.139H-53.2V1.294h3.138v-12.7h6.329v-3.1H-59.546Zm29.754,3.147v3.132h-9.55v-3.132h-3.134V1.29h3.169V-4.995h9.521V1.283h3.122V-11.363Zm-.017-3.144h-9.515v3.124h9.515Zm.007,3.136-.007.007h.017v-.02h-.017v.02Zm-9.522-.012h-.017v.02h.017Zm18.216-3.128H-24.23v15.8h3.168V-5.056h6.336q-.018-1.577-.038-3.152h-6.346Zm9.568,12.676v-.018l-.018.018h.018ZM-8.419,1.3V-1.835h-3.122V1.3h3.122ZM-11.56-1.853V-5.038h-3.149c0,1.055,0,2.11,0,3.184Zm.018,0h-.018v.018l.018-.018Zm-3.168-3.184v-.019l-.014.015.014-.016h-.017c0,.006,0,.013,0,.019Zm-.039-3.175-.016-.014c0,.006,0,.011,0,.017h.019v-.016h-.019l.015.013Zm3.182-3.155h-3.179c0,1.089,0,2.115,0,3.141h3.178v-3.142Zm0-.018v.018h.018Zm0,0,.018.018v-.018h-.018Zm3.156-3.129h-3.138v3.129h3.138v-3.128ZM-6.9-11.366v9.507h3.121V-5.052H5.729v-3.16H-3.776v-3.154H-6.9ZM8.912-14.513H-3.758v3.13H8.912Zm-12.67,3.129h-.018l.014.014-.014-.014v.018h.018ZM8.9,1.3V-1.84H-3.76q0,1.567,0,3.137ZM-3.76-1.84v-.018l-.014.014.014-.014h-.018v.018ZM33.614-14.492v6.276H24.07v-6.306h-3.1V1.306h3.144V-4.969h9.544V1.3h3.113V-14.492ZM39-11.366v9.507h3.121V-5.052h9.507v-3.16H42.127v-3.154H39Zm15.811-3.148H42.145v3.13h12.67Zm-12.67,3.129h-.018l.014.014-.014-.014v.018h.018ZM54.8,1.3V-1.84H42.143q0,1.567,0,3.137ZM42.143-1.84v-.018l-.014.014.014-.014h-.018v.018ZM69.35-1.856v.018l.018-.018H69.35ZM59.866-8.19v-3.195h9.486v-3.132H56.7V1.294h3.145V-4.98h6.369v3.124H69.35q0-3.167,0-6.335Zm9.5,0-.015-.013v.017h.02v-.017h-.02Zm3.127-.013v-3.16H69.371v3.16Zm-3.122-3.16v-.017h-.02v.017Zm0,9.53c0,1.044,0,2.088,0,3.138H72.5V-1.837H69.368Zm4.8-9.528v9.507h3.121V-5.052h9.507v-3.16H77.286v-3.154H74.163Zm15.811-3.148H77.3v3.13h12.67ZM77.3-11.384h-.018l.014.014-.014-.014v.018H77.3ZM89.963,1.3V-1.84H77.3q0,1.567,0,3.137ZM77.3-1.84v-.018l-.014.014.014-.014h-.018v.018Z" transform="translate(326.032 8396.021)" fill="#fffae6"/>
  </g>
</svg>
