<svg xmlns="http://www.w3.org/2000/svg" width="2217.478" height="1257.264" viewBox="0 0 2217.478 1257.264">
  <g id="story_cloud" data-name="story cloud" transform="translate(116.14 -3206.001)">
    <path id="Path_180" data-name="Path 180" d="M1245,1731.211s-25.991-15.186-46.835-33.207-21.123-23.065-36.54-38.874-13.287-17.541-25.13-24.359-17.976-3.845-22.241-2.915-28.47,5.8-43.358-2.542-12.924-19.8-16.372-27.305-16.916-20.845-38.714-14.5-28.371,26.888-31.135,34.2-14.893,23.245-39.222,19.693-63.5-34.524-65.922-72.847,23.591-65.365,23.591-65.365,25.719-34.622,17-52.5-20.527-19.161-37.073-16.13-12.765,26.465-38.75,26.956-38.514-15.936-38.514-15.936-26.782,39.651-55.878,42.037-51.937,9.136-91.9-3.369-60.1-49.688-60.1-49.688-29.935,1.72-46.406,4.156-33.205-12.082-41.241,0,10.917,28.665,28.419,26.01,23.966,20.32,22.919,33.063-19.8,11.123-24.136,18.6.728,12.048,5.909,14.872,6.843.713,14.815-3.582,19-5.943,34.6-2.723,20.086,6.3,26.41,16.727,1.722,18.236,10.671,28.117,23.42,9.811,37.322,17.713,21.066,15.8,23.85,33.749,4.69,25.528,16.7,35.555,28.476,14.25,37.8,22.5,7.884,17.329,19.523,28.164,51.972,41.941,51.972,41.941-55.426-30.1-68.923-40.422-12.564-12.41-22.023-18.255-13.367-5.226-19.547-4.851-13.814.345-19.883-2.969-22.215-18.933-25.794-29.838.1-15.306-6.363-22.934-14.127-7.333-19.5-7.575-4.965.438-17.85,6.215-19.807-9.264-23.126-15.583-3-20.988-8.778-22.967-14.962-.36-17.814,6.452-3.034,15.892,0,24.562,7.392,9.985,16.924,12.56,24.35,15.555,32.794,28.15,14.109,32.358,12.5,47.034-5.064,25.545-15.231,37.642-27.233,13.369-34.268,13.359-15.56-1.356-19.288,9.26.668,20.06,6.571,26.123,18.874,10.96,30.475,12.047,19.073,4.27,28.307,14.269-1.786,30.058-1.786,30.058,6.43,19,23.063,26.25,20.881.266,23.649-4.06,4.607-16.772,0-25.291-14.431-15.54-18.882-26.957,2.456-20.894,9.6-26.751,20.7,1.532,26.9-3.638.516-13.19-2.1-17.04-15.237-11.883-22.246-19.214-18.148-24.182-18.148-24.182,17.749,22.5,42.5,33.182,25.605,10,41.456,21.615,15.483,16.975,15.908,21.758-4.781,10.095-10.55,10.667-12.514-1.842-20.7,0-9.008,8.658-7.132,17.953,6.482,12.847,15.438,18.438,18.334,3.852,30.8,10,21.706,15.287,31.717,29.044,8.635,23.141,5.231,31.534-24.806,8.236-24.806,8.236,2.342,10.493,12.831,20.774,32.9,2.034,30.146,29.225,21.072,52.182,21.072,52.182-18.672-13.812-32.857-22.605-17.709-23.97-32.253-26.65-31.56-1.058-40.016,7.129-11.781,15.565-13.393,27.35,19.854,17.526,23.831,34.71-4.57,20.051-7.926,34.023-17.1,19.6-19.82,30.115-4.327,12.83,0,22.643,12.624,8.291,17.308,16.61,2.768,8.954,1.428,21.133,7.85,27,7.85,27-12.67-17.1-26.586-28.55-23.771-1.879-33.185-16.824,4.271-21.97-8.031-36.516-20.183-27.22-52.388-28.078-42.932,16.278-71.811,19.148-31.393,18.671-52.639,17.747-37.98-7.942-60.979-32.607-426.648-37.981-427-65.78,0-2046,0-2046,445.925-2.169,612.714,46.871,52.769,160.674,52.769,160.674,52.144-23.7,86.792,37.76c15.072,26.733-46.255,79.106-39.111,119.157,9.187,51.507,82.821,91.881,64.084,128.325-11.209,21.8-20.8,39.39-27.182,53.63-12.282,27.4-12.045,41.5,13.29,47.383,19.284,4.48,76.5-.671,88.918-25.924s-41.519-35.171-39.234-75.089c.733-12.809,19.758-8.739,21.992-20.218,6.55-33.646,0-74.3,0-74.3s4.884,14.137,33.21,45.908c7.691,8.627,25.44,7.259,39.453,16.6,17.719,11.813,31.691,34.3,36.047,44.629,30.643,72.955,3.455,43.277,0,71.463-1.476,12.041,23.675,27.882,30.465,53.2,3.582,13.359.491,20,0,33.217-.684,18.4,17.1,48,17.1,48s-17.12-5.118-27.62-18.756c-7.394-9.6-7.759-26.88-12.9-34.775-11.177-17.181-23.245-25.067-27.211-27.689-6.241-3.3-31.67-9.842-54.438-2.641-14.463,4.574-27.921,15-34.106,35.858-15.7,52.946,21.822,91.119,23.494,114.376.751,10.443,30.081,6.056,59.888,14.354,31.941,8.892,58.218,11.138,64.55,40.2s-41.322,62.649-39.222,76.033c4.326,27.567,42.768,28.35,70.357,54.975,16.441,15.867,21.617,55.927,33.862,75.348,32.4,51.378,68.478,16.846,64.583-6.3s-53.739-83.205-53.739-83.205,35.949,31.588,57.955,36.781c15.474,3.652,27.4,5.3,34.888,12.4,21.992,20.826,22.85,52.117,8.267,74.047-5.249,7.894-13.292,33.072-8.267,54.385,5.676,24.076,24.567,44.571,16.89,53.262-17.624,19.954-63.814-14.856-68.289,0-16.214,53.827,29.645,80.939,29.645,80.939s36.794,4.553,47.645,31.658,51.619,66.38,51.619,66.38-40.559-26.795-60.62-19.253-19.674,25.759-51.778,23.843-12.5-54.037-34.159-61.4-52.479,31.944-52.479,31.944-.995,17.064-9.459,22.752-19.818-1.977-26.945,2.115-7.278,12.745,0,20.348,20.134,2.977,34.951,19.433,21.642,31.858,24.321,46.394,2.51,27.105-5.029,41.881-21.285,7.506-25.209,16.9.775,17.239,8.546,20.679,24.144-2.112,38.42,5.1,14.846,16.872,18.876,29.015,8.84,24.757,18.628,33.155,25.049,3.777,44.426,17.176,18.86,31.971,25.892,50.125,65.75,82.613,65.75,82.613" transform="translate(-105.604 4451) rotate(-90)" fill="#fffae6"/>
    <path id="Path_231" data-name="Path 231" d="M-1167.418,8793.529c-18.737-6.944-33.46-26.547-44.011-33.374s-26.807-13.889-43.057-10.968-21.6,19.136-53.847,31.98-26.359,14.508-56.14,0-20.417-45.185-62.985-58.029-44.29,75.3-87.2,85.051-50.271-13.455-84.342-10.275-45.685,2.9-51.944,22.993,28.682,85.35-7.624,109.74-106.717,21.323-106.717,21.323,30.025,23.779,78.9,38.948,52.928,9.737,95.86,0,33.347-40.567,75.869-38.948,36.525,3.445,52.967,8.87,33.257-4.817,41.249-37.89,73.126,7.492,86.842-3.124-13.1-46.517,15.128-65.418,20.737-58.818,63.99-66.966,66.889,23.152,87.068,24.4,48.289-3.657,48.289-3.657S-1148.681,8800.474-1167.418,8793.529Z" transform="translate(2594 -5297)" fill="#d5d5d5"/>
    <g id="Group_83" data-name="Group 83">
      <line id="Line_176" data-name="Line 176" x1="253.068" y1="253.332" transform="translate(762.432 3566.168)" fill="none" stroke="#fffae6" stroke-width="5"/>
      <line id="Line_177" data-name="Line 177" x1="217.847" y1="217.555" transform="translate(754.653 3573.945)" fill="none" stroke="#fffae6" stroke-width="5"/>
      <line id="Line_179" data-name="Line 179" x1="263.734" y1="263.667" transform="translate(785.766 3542.833)" fill="none" stroke="#fffae6" stroke-width="5"/>
      <line id="Line_180" data-name="Line 180" x1="266.512" y1="266.889" transform="translate(777.988 3550.611)" fill="none" stroke="#fffae6" stroke-width="5"/>
      <line id="Line_181" data-name="Line 181" x1="261.29" y1="262.11" transform="translate(770.21 3558.39)" fill="none" stroke="#fffae6" stroke-width="5"/>
      <line id="Line_182" data-name="Line 182" x1="232.399" y1="233.001" transform="translate(809.101 3519.499)" fill="none" stroke="#fffae6" stroke-width="5"/>
      <line id="Line_183" data-name="Line 183" x1="248.178" y1="248.224" transform="translate(801.322 3527.276)" fill="none" stroke="#fffae6" stroke-width="5"/>
      <line id="Line_184" data-name="Line 184" x1="260.956" y1="260.445" transform="translate(793.544 3535.055)" fill="none" stroke="#fffae6" stroke-width="5"/>
      <line id="Line_185" data-name="Line 185" x1="228.065" y1="228.336" transform="translate(832.435 3496.164)" fill="none" stroke="#fffae6" stroke-width="5"/>
      <line id="Line_186" data-name="Line 186" x1="248.843" y1="248.558" transform="translate(824.657 3503.942)" fill="none" stroke="#fffae6" stroke-width="5"/>
      <line id="Line_187" data-name="Line 187" x1="240.621" y1="240.779" transform="translate(816.879 3511.721)" fill="none" stroke="#fffae6" stroke-width="5"/>
      <line id="Line_188" data-name="Line 188" x1="227.73" y1="227.671" transform="translate(855.77 3472.829)" fill="none" stroke="#fffae6" stroke-width="5"/>
      <line id="Line_189" data-name="Line 189" x1="212.508" y1="212.893" transform="translate(847.992 3480.607)" fill="none" stroke="#fffae6" stroke-width="5"/>
      <line id="Line_190" data-name="Line 190" x1="220.287" y1="220.114" transform="translate(840.213 3488.386)" fill="none" stroke="#fffae6" stroke-width="5"/>
      <line id="Line_191" data-name="Line 191" x1="240.396" y1="241.005" transform="translate(879.104 3449.495)" fill="none" stroke="#fffae6" stroke-width="5"/>
      <line id="Line_192" data-name="Line 192" x1="233.174" y1="233.227" transform="translate(871.326 3457.273)" fill="none" stroke="#fffae6" stroke-width="5"/>
      <line id="Line_193" data-name="Line 193" x1="252.952" y1="252.448" transform="translate(863.548 3465.052)" fill="none" stroke="#fffae6" stroke-width="5"/>
      <line id="Line_194" data-name="Line 194" x1="259.061" y1="259.34" transform="translate(902.439 3426.16)" fill="none" stroke="#fffae6" stroke-width="5"/>
      <line id="Line_195" data-name="Line 195" x1="256.839" y1="257.562" transform="translate(894.661 3433.938)" fill="none" stroke="#fffae6" stroke-width="5"/>
      <line id="Line_196" data-name="Line 196" x1="251.618" y1="251.783" transform="translate(886.882 3441.717)" fill="none" stroke="#fffae6" stroke-width="5"/>
      <line id="Line_197" data-name="Line 197" x1="263.727" y1="263.674" transform="translate(925.773 3402.826)" fill="none" stroke="#fffae6" stroke-width="5"/>
      <line id="Line_198" data-name="Line 198" x1="272.505" y1="271.896" transform="translate(917.995 3410.604)" fill="none" stroke="#fffae6" stroke-width="5"/>
      <line id="Line_199" data-name="Line 199" x1="279.283" y1="279.118" transform="translate(910.217 3418.382)" fill="none" stroke="#fffae6" stroke-width="5"/>
      <line id="Line_200" data-name="Line 200" x1="286.392" y1="287.009" transform="translate(949.108 3379.491)" fill="none" stroke="#fffae6" stroke-width="5"/>
      <line id="Line_201" data-name="Line 201" x1="250.17" y1="250.23" transform="translate(941.33 3387.27)" fill="none" stroke="#fffae6" stroke-width="5"/>
      <line id="Line_202" data-name="Line 202" x1="262.949" y1="263.452" transform="translate(933.551 3395.048)" fill="none" stroke="#fffae6" stroke-width="5"/>
      <line id="Line_203" data-name="Line 203" x1="296.058" y1="296.343" transform="translate(972.442 3356.157)" fill="none" stroke="#fffae6" stroke-width="5"/>
      <line id="Line_204" data-name="Line 204" x1="294.836" y1="294.565" transform="translate(964.664 3363.935)" fill="none" stroke="#fffae6" stroke-width="5"/>
      <line id="Line_205" data-name="Line 205" x1="295.614" y1="295.787" transform="translate(956.886 3371.713)" fill="none" stroke="#fffae6" stroke-width="5"/>
      <line id="Line_206" data-name="Line 206" x1="294.723" y1="294.678" transform="translate(995.777 3332.822)" fill="none" stroke="#fffae6" stroke-width="5"/>
      <line id="Line_207" data-name="Line 207" x1="297.501" y1="296.899" transform="translate(987.999 3340.601)" fill="none" stroke="#fffae6" stroke-width="5"/>
      <line id="Line_208" data-name="Line 208" x1="310.279" y1="310.121" transform="translate(980.221 3348.379)" fill="none" stroke="#fffae6" stroke-width="5"/>
      <line id="Line_209" data-name="Line 209" x1="256" y1="256" transform="translate(1073.5 3363.5)" fill="none" stroke="#fffae6" stroke-width="5"/>
      <line id="Line_210" data-name="Line 210" x1="287.167" y1="287.234" transform="translate(1011.333 3317.266)" fill="none" stroke="#fffae6" stroke-width="5"/>
      <line id="Line_211" data-name="Line 211" x1="305.945" y1="305.456" transform="translate(1003.555 3325.044)" fill="none" stroke="#fffae6" stroke-width="5"/>
      <line id="Line_212" data-name="Line 212" x1="85" y1="85" transform="translate(1228.5 3471.5)" fill="none" stroke="#fffae6" stroke-width="5"/>
      <line id="Line_213" data-name="Line 213" x1="214" y1="214" transform="translate(1107.5 3366.5)" fill="none" stroke="#fffae6" stroke-width="5"/>
      <line id="Line_214" data-name="Line 214" x1="206" y1="206" transform="translate(1103.5 3378.5)" fill="none" stroke="#fffae6" stroke-width="5"/>
      <line id="Line_215" data-name="Line 215" x1="58" y1="58" transform="translate(1268.5 3465.5)" fill="none" stroke="#fffae6" stroke-width="5"/>
      <line id="Line_216" data-name="Line 216" x1="54" y1="54" transform="translate(1263.5 3476.5)" fill="none" stroke="#fffae6" stroke-width="5"/>
      <line id="Line_217" data-name="Line 217" x1="65" y1="65" transform="translate(1252.5 3480.5)" fill="none" stroke="#fffae6" stroke-width="5"/>
      <line id="Line_218" data-name="Line 218" x1="78" y1="78" transform="translate(1290.5 3440.5)" fill="none" stroke="#fffae6" stroke-width="5"/>
      <line id="Line_219" data-name="Line 219" x1="61" y1="61" transform="translate(1283.5 3449.5)" fill="none" stroke="#fffae6" stroke-width="5"/>
      <line id="Line_220" data-name="Line 220" x1="58" y1="58" transform="translate(1275.5 3457.5)" fill="none" stroke="#fffae6" stroke-width="5"/>
      <line id="Line_221" data-name="Line 221" x1="117" y1="117" transform="translate(1313.5 3417.5)" fill="none" stroke="#fffae6" stroke-width="5"/>
      <line id="Line_222" data-name="Line 222" x1="115" y1="115" transform="translate(1306.5 3426.5)" fill="none" stroke="#fffae6" stroke-width="5"/>
      <line id="Line_223" data-name="Line 223" x1="83" y1="83" transform="translate(1297.5 3432.5)" fill="none" stroke="#fffae6" stroke-width="5"/>
      <line id="Line_224" data-name="Line 224" x1="70" y1="70" transform="translate(1407.5 3464.5)" fill="none" stroke="#fffae6" stroke-width="5"/>
      <line id="Line_225" data-name="Line 225" x1="81" y1="81" transform="translate(1380.5 3453.5)" fill="none" stroke="#fffae6" stroke-width="5"/>
      <line id="Line_226" data-name="Line 226" x1="103" y1="103" transform="translate(1344.5 3432.5)" fill="none" stroke="#fffae6" stroke-width="5"/>
      <line id="Line_229" data-name="Line 229" x1="58" y1="58" transform="translate(1431.5 3472.5)" fill="none" stroke="#fffae6" stroke-width="5"/>
    </g>
    <g id="Group_82" data-name="Group 82" transform="translate(27.027)">
      <path id="Path_284" data-name="Path 284" d="M-2583.343,9357.933s.342,22.917,38.681-23.087,23.743-58.574,46.779-81.889,39.68-9.332,55.3-2.99,24.387,13.32,47.421,23.369,44.818,19.539,62.7,11.6-1.689-25.663,7.377-40.259,20.214-7.575,31.064-28.21,9.993-38.815,12.339-54.327-10.2-31.67,0-46.02,62.509-14.423,89.891-9.934,47.945,29.243,61,44.492,15.531,30.29,27.668,40.524,17.918,13.093,49.348,9.117c13.043-1.649,26.311-1,39.948-5.07,18.612-5.548,38.788-13.506,38.788-13.506s-20.912,17.052-46.158,35.417c-9.849,7.165-29.752,1.905-37.874,9.394-28.5,26.274-19.538,39.412-35.319,46.692s-60.853,3.348-74.4-9.468-13.874-13.783-23-37.225,1.1-48.559-9.859-53.107-32.009-.548-42.747,13.1-12.646,47.333-12.646,98.39,22.434,63.4,12.646,95.521-44.888,9.938-69.174,29.933-2.828,37.535-27.969,50.047-39.118,15.24-72.594,0-31.157-45.721-61.309-60.961-36.5-34.259-59.621-19.019-16.1,45.646-32.877,79.979-15.41,71.587-15.41,71.587Z" transform="translate(2494 -5297)" fill="#d5d5d5"/>
      <line id="Line_230" data-name="Line 230" y1="526.569" transform="translate(-88.07 4064.326) rotate(-45)" fill="none" stroke="#fffae6" stroke-width="5"/>
      <line id="Line_231" data-name="Line 231" y1="526.569" transform="translate(-95.848 4072.104) rotate(-45)" fill="none" stroke="#fffae6" stroke-width="5"/>
      <line id="Line_232" data-name="Line 232" y1="526.569" transform="translate(-103.626 4079.883) rotate(-45)" fill="none" stroke="#fffae6" stroke-width="5"/>
      <line id="Line_233" data-name="Line 233" y1="526.569" transform="translate(-64.736 4040.992) rotate(-45)" fill="none" stroke="#fffae6" stroke-width="5"/>
      <line id="Line_234" data-name="Line 234" y1="526.569" transform="translate(-72.514 4048.771) rotate(-45)" fill="none" stroke="#fffae6" stroke-width="5"/>
      <line id="Line_235" data-name="Line 235" y1="526.569" transform="translate(-80.292 4056.549) rotate(-45)" fill="none" stroke="#fffae6" stroke-width="5"/>
      <line id="Line_236" data-name="Line 236" y1="526.569" transform="translate(-41.401 4017.657) rotate(-45)" fill="none" stroke="#fffae6" stroke-width="5"/>
      <line id="Line_237" data-name="Line 237" y1="526.569" transform="translate(-49.179 4025.436) rotate(-45)" fill="none" stroke="#fffae6" stroke-width="5"/>
      <line id="Line_238" data-name="Line 238" y1="526.569" transform="translate(-56.958 4033.214) rotate(-45)" fill="none" stroke="#fffae6" stroke-width="5"/>
      <line id="Line_239" data-name="Line 239" y1="526.569" transform="translate(-18.066 3994.323) rotate(-45)" fill="none" stroke="#fffae6" stroke-width="5"/>
      <line id="Line_240" data-name="Line 240" y1="526.569" transform="translate(-25.845 4002.102) rotate(-45)" fill="none" stroke="#fffae6" stroke-width="5"/>
      <line id="Line_241" data-name="Line 241" y1="526.569" transform="translate(-33.623 4009.879) rotate(-45)" fill="none" stroke="#fffae6" stroke-width="5"/>
      <line id="Line_242" data-name="Line 242" y1="526.569" transform="translate(5.268 3970.988) rotate(-45)" fill="none" stroke="#fffae6" stroke-width="5"/>
      <line id="Line_243" data-name="Line 243" y1="526.569" transform="translate(-2.51 3978.767) rotate(-45)" fill="none" stroke="#fffae6" stroke-width="5"/>
      <line id="Line_244" data-name="Line 244" y1="526.569" transform="translate(-10.289 3986.545) rotate(-45)" fill="none" stroke="#fffae6" stroke-width="5"/>
      <line id="Line_245" data-name="Line 245" y1="526.569" transform="translate(28.603 3947.654) rotate(-45)" fill="none" stroke="#fffae6" stroke-width="5"/>
      <line id="Line_246" data-name="Line 246" y1="526.569" transform="translate(20.824 3955.433) rotate(-45)" fill="none" stroke="#fffae6" stroke-width="5"/>
      <line id="Line_247" data-name="Line 247" y1="526.569" transform="translate(13.046 3963.21) rotate(-45)" fill="none" stroke="#fffae6" stroke-width="5"/>
      <line id="Line_248" data-name="Line 248" y1="526.569" transform="translate(51.937 3924.319) rotate(-45)" fill="none" stroke="#fffae6" stroke-width="5"/>
      <line id="Line_249" data-name="Line 249" y1="526.569" transform="translate(44.159 3932.098) rotate(-45)" fill="none" stroke="#fffae6" stroke-width="5"/>
      <line id="Line_250" data-name="Line 250" y1="526.569" transform="translate(36.381 3939.876) rotate(-45)" fill="none" stroke="#fffae6" stroke-width="5"/>
      <line id="Line_251" data-name="Line 251" y1="526.569" transform="translate(75.271 3900.985) rotate(-45)" fill="none" stroke="#fffae6" stroke-width="5"/>
      <line id="Line_252" data-name="Line 252" y1="526.569" transform="translate(67.493 3908.763) rotate(-45)" fill="none" stroke="#fffae6" stroke-width="5"/>
      <line id="Line_253" data-name="Line 253" y1="526.569" transform="translate(59.715 3916.541) rotate(-45)" fill="none" stroke="#fffae6" stroke-width="5"/>
      <line id="Line_254" data-name="Line 254" y1="526.569" transform="translate(98.606 3877.65) rotate(-45)" fill="none" stroke="#fffae6" stroke-width="5"/>
      <line id="Line_255" data-name="Line 255" y1="526.569" transform="translate(90.828 3885.429) rotate(-45)" fill="none" stroke="#fffae6" stroke-width="5"/>
      <line id="Line_256" data-name="Line 256" y1="526.569" transform="translate(83.05 3893.207) rotate(-45)" fill="none" stroke="#fffae6" stroke-width="5"/>
      <line id="Line_257" data-name="Line 257" y1="526.569" transform="translate(121.94 3854.315) rotate(-45)" fill="none" stroke="#fffae6" stroke-width="5"/>
      <line id="Line_258" data-name="Line 258" y1="526.569" transform="translate(114.163 3862.094) rotate(-45)" fill="none" stroke="#fffae6" stroke-width="5"/>
      <line id="Line_259" data-name="Line 259" y1="526.569" transform="translate(106.384 3869.872) rotate(-45)" fill="none" stroke="#fffae6" stroke-width="5"/>
      <line id="Line_260" data-name="Line 260" y1="526.569" transform="translate(145.275 3830.981) rotate(-45)" fill="none" stroke="#fffae6" stroke-width="5"/>
      <line id="Line_261" data-name="Line 261" y1="526.569" transform="translate(137.497 3838.76) rotate(-45)" fill="none" stroke="#fffae6" stroke-width="5"/>
      <line id="Line_262" data-name="Line 262" y1="526.569" transform="translate(129.719 3846.538) rotate(-45)" fill="none" stroke="#fffae6" stroke-width="5"/>
      <line id="Line_263" data-name="Line 263" y1="526.569" transform="translate(168.609 3807.646) rotate(-45)" fill="none" stroke="#fffae6" stroke-width="5"/>
      <line id="Line_264" data-name="Line 264" y1="526.569" transform="translate(160.832 3815.425) rotate(-45)" fill="none" stroke="#fffae6" stroke-width="5"/>
      <line id="Line_265" data-name="Line 265" y1="526.569" transform="translate(153.053 3823.203) rotate(-45)" fill="none" stroke="#fffae6" stroke-width="5"/>
      <line id="Line_266" data-name="Line 266" y1="526.569" transform="translate(191.944 3784.313) rotate(-45)" fill="none" stroke="#fffae6" stroke-width="5"/>
      <line id="Line_267" data-name="Line 267" y1="526.569" transform="translate(184.166 3792.091) rotate(-45)" fill="none" stroke="#fffae6" stroke-width="5"/>
      <line id="Line_268" data-name="Line 268" y1="526.569" transform="translate(176.388 3799.869) rotate(-45)" fill="none" stroke="#fffae6" stroke-width="5"/>
      <line id="Line_269" data-name="Line 269" y1="526.569" transform="translate(215.279 3760.978) rotate(-45)" fill="none" stroke="#fffae6" stroke-width="5"/>
      <line id="Line_270" data-name="Line 270" y1="526.569" transform="translate(207.5 3768.756) rotate(-45)" fill="none" stroke="#fffae6" stroke-width="5"/>
      <line id="Line_271" data-name="Line 271" y1="526.569" transform="translate(199.722 3776.534) rotate(-45)" fill="none" stroke="#fffae6" stroke-width="5"/>
      <line id="Line_272" data-name="Line 272" x1="365.454" y1="365.484" transform="translate(245.5 3744.5)" fill="none" stroke="#fffae6" stroke-width="5"/>
      <line id="Line_273" data-name="Line 273" y1="526.569" transform="translate(230.835 3745.422) rotate(-45)" fill="none" stroke="#fffae6" stroke-width="5"/>
      <line id="Line_274" data-name="Line 274" y1="526.569" transform="translate(223.057 3753.199) rotate(-45)" fill="none" stroke="#fffae6" stroke-width="5"/>
      <line id="Line_275" data-name="Line 275" x1="350.788" y1="351.149" transform="translate(283.5 3735.5)" fill="none" stroke="#fffae6" stroke-width="5"/>
      <line id="Line_276" data-name="Line 276" x1="350.01" y1="349.928" transform="translate(276.5 3744.5)" fill="none" stroke="#fffae6" stroke-width="5"/>
      <line id="Line_277" data-name="Line 277" x1="357.232" y1="356.706" transform="translate(261.5 3745.5)" fill="none" stroke="#fffae6" stroke-width="5"/>
      <line id="Line_278" data-name="Line 278" x1="341.123" y1="340.815" transform="translate(316.5 3722.5)" fill="none" stroke="#fffae6" stroke-width="5"/>
      <line id="Line_279" data-name="Line 279" x1="350.345" y1="349.593" transform="translate(299.5 3721.5)" fill="none" stroke="#fffae6" stroke-width="5"/>
      <line id="Line_280" data-name="Line 280" x1="353.567" y1="353.371" transform="translate(288.5 3725.5)" fill="none" stroke="#fffae6" stroke-width="5"/>
      <line id="Line_281" data-name="Line 281" x1="341.457" y1="341.48" transform="translate(339.5 3698.5)" fill="none" stroke="#fffae6" stroke-width="5"/>
      <line id="Line_282" data-name="Line 282" x1="350.679" y1="350.259" transform="translate(322.5 3697.5)" fill="none" stroke="#fffae6" stroke-width="5"/>
      <line id="Line_283" data-name="Line 283" x1="348.901" y1="349.037" transform="translate(316.5 3706.5)" fill="none" stroke="#fffae6" stroke-width="5"/>
      <line id="Line_284" data-name="Line 284" x1="317.792" y1="318.145" transform="translate(386.5 3698.5)" fill="none" stroke="#fffae6" stroke-width="5"/>
      <line id="Line_285" data-name="Line 285" x1="340.014" y1="339.924" transform="translate(356.5 3684.5)" fill="none" stroke="#fffae6" stroke-width="5"/>
      <line id="Line_286" data-name="Line 286" x1="334.236" y1="334.702" transform="translate(354.5 3697.5)" fill="none" stroke="#fffae6" stroke-width="5"/>
      <path id="Path_285" data-name="Path 285" d="M0,383.927V0" transform="translate(456.149 3721.834) rotate(-45)" fill="none" stroke="#fffae6" stroke-width="5"/>
      <line id="Line_288" data-name="Line 288" x1="279.349" y1="278.59" transform="translate(440.5 3722.5)" fill="none" stroke="#fffae6" stroke-width="5"/>
      <line id="Line_289" data-name="Line 289" x1="279.805" y1="280.554" transform="translate(432.265 3728.315)" fill="none" stroke="#fffae6" stroke-width="5"/>
      <line id="Line_290" data-name="Line 290" y1="526.569" transform="translate(-115.171 4083.156) rotate(-45)" fill="none" stroke="#fffae6" stroke-width="5"/>
      <line id="Line_291" data-name="Line 291" y1="526.569" transform="translate(-123.171 4089.156) rotate(-45)" fill="none" stroke="#fffae6" stroke-width="5"/>
    </g>
  </g>
</svg>
