<svg xmlns="http://www.w3.org/2000/svg" width="118.68" height="116.792" viewBox="0 0 118.68 116.792">
  <g id="AdobeStock_484306980_Converted_" data-name="AdobeStock_484306980 [Converted]" transform="matrix(0.914, -0.407, 0.407, 0.914, 0, 37.028)">
    <path id="Path_414" data-name="Path 414" d="M87.395,6.985H72.829V0H18.208V6.985H0V24.447H3.64v6.985H7.282v6.985h3.641v3.494h7.284V45.4H29.132V48.9h7.282v3.492h3.642V62.866H36.414V73.343H29.132v3.492H25.489V87.312H65.548V76.835H61.906V73.343H54.621V62.866H50.982V52.388h3.639V48.9h7.284V45.4H72.829V41.911h7.284V38.417h3.643V31.432H87.4V24.447h3.642V6.985H87.4ZM21.847,38.417H14.566V34.926H10.924V27.94H7.282V17.463H3.64V10.477H18.208V34.926h3.639v3.491ZM87.395,13.97v3.492H83.756V27.939H80.113v6.986H76.471v3.491H69.187V34.926h3.642V10.477H87.395v3.492Z" fill="#fcba35"/>
    <g id="Group_107" data-name="Group 107">
      <rect id="Rectangle_114" data-name="Rectangle 114" width="3.639" height="3.492" transform="translate(50.982 48.895)" fill="#ffcf53"/>
      <rect id="Rectangle_115" data-name="Rectangle 115" width="3.642" height="3.492" transform="translate(36.413 48.895)" fill="#ffcf53"/>
      <rect id="Rectangle_116" data-name="Rectangle 116" width="3.642" height="3.492" transform="translate(29.132 45.404)" fill="#ffcf53"/>
      <rect id="Rectangle_117" data-name="Rectangle 117" width="3.639" height="3.492" transform="translate(50.982 41.911)" fill="#fdbe45"/>
      <rect id="Rectangle_118" data-name="Rectangle 118" width="3.642" height="3.492" transform="translate(47.34 27.939)" fill="#fcb540"/>
      <g id="Group_103" data-name="Group 103" transform="translate(29.132 38.417)">
        <path id="Path_415" data-name="Path 415" d="M560.779,1476H535.29v3.493h32.773V1476h-7.284Z" transform="translate(-535.29 -1434.089)" fill="#faa733"/>
        <path id="Path_416" data-name="Path 416" d="M806.573,980.082V962.62H802.93v20.955h3.643Z" transform="translate(-788.364 -948.649)" fill="#faa733"/>
        <rect id="Rectangle_119" data-name="Rectangle 119" width="3.642" height="3.492" transform="translate(25.489 3.494)" fill="#faa733"/>
        <rect id="Rectangle_120" data-name="Rectangle 120" width="3.642" height="3.494" transform="translate(29.132)" fill="#faa733"/>
      </g>
      <path id="Path_417" data-name="Path 417" d="M445.141,64.17H434.213v3.492h-3.639v3.492H423.29v3.493h-3.642V78.14h-7.282v3.492h-3.642v3.493H401.44V92.11h3.642v6.985h3.642v3.494h3.642V99.095h3.639V95.6h7.284V92.11h3.642V88.617h7.281V85.125H441.5V81.632h3.643V78.14h3.639V64.17Z" transform="translate(-379.593 -60.678)" fill="#faa734"/>
      <g id="Group_104" data-name="Group 104" transform="translate(21.847 3.492)">
        <path id="Path_418" data-name="Path 418" d="M634.984,320.86v3.492h-3.643v3.493h-7.284v3.492h-3.639v3.493h-7.284v3.493h-7.284v3.491H602.21V348.8h18.208v-3.493H627.7v-3.494h7.284V334.83h3.639V320.86Z" transform="translate(-591.284 -306.89)" fill="#fdbf46"/>
        <path id="Path_419" data-name="Path 419" d="M412.366,78.14h7.282V74.647h3.642V71.155h7.284V67.662h3.639V64.17H401.44V85.125h7.284V81.632h3.642Z" transform="translate(-401.44 -64.17)" fill="#fdbf46"/>
      </g>
      <g id="Group_105" data-name="Group 105" transform="translate(18.208)">
        <path id="Path_420" data-name="Path 420" d="M609.492,834.28H602.21v3.492h14.566V834.28h-7.284Z" transform="translate(-587.644 -788.876)" fill="#ffcd49"/>
        <path id="Path_421" data-name="Path 421" d="M472,770.1H468.36v3.493h7.284V770.1Z" transform="translate(-461.079 -728.189)" fill="#ffcd49"/>
        <rect id="Rectangle_121" data-name="Rectangle 121" width="3.639" height="3.494" transform="translate(47.34 31.432)" fill="#ffcd49"/>
        <path id="Path_422" data-name="Path 422" d="M1271.3,320.86v13.97h3.641V320.86Z" transform="translate(-1220.321 -303.398)" fill="#ffcd49"/>
        <path id="Path_423" data-name="Path 423" d="M334.57,131.832v17.463h3.639V128.34H334.57Z" transform="translate(-334.57 -121.355)" fill="#ffcd49"/>
        <path id="Path_424" data-name="Path 424" d="M560.779,0H535.29V3.492h32.773V0h-7.284Z" transform="translate(-524.366)" fill="#ffcd49"/>
      </g>
      <g id="Group_106" data-name="Group 106">
        <path id="Path_425" data-name="Path 425" d="M25.489,163.266h3.642v-3.494H25.489v-6.985H21.847v-3.493H18.208v6.986h3.639v3.491H14.566v-3.491H10.924v-6.986H7.282V138.817H3.64v-6.985H18.208V128.34H0V145.8H3.64v6.985H7.282v6.985h3.641v3.494h7.284v3.493h7.281Z" transform="translate(0 -121.355)" fill="#fcba35"/>
        <rect id="Rectangle_122" data-name="Rectangle 122" width="3.642" height="3.494" transform="translate(69.187 31.432)" fill="#fcba35"/>
        <path id="Path_426" data-name="Path 426" d="M530.256,6.985H515.69V0H504.766V3.492h7.282v13.97h3.642V10.477h14.566v6.985h-3.639V27.939h-3.643v6.986h-3.642v3.491h-7.284V34.926h-3.639v3.491h-3.643v3.494h-3.642V45.4H490.2V48.9h-7.284v13.97h-3.642V73.343h-7.282v3.492H468.35V87.312h40.059V76.835h-3.643V73.343h-7.284V62.865h-3.639V48.9h10.924V45.4H515.69V41.911h7.284V38.416h3.643V31.432h3.639V24.447H533.9V6.985Zm-43.7,62.866V52.388H490.2V73.343h-3.643V69.851Zm14.566,10.477h3.642V83.82H471.993V80.328Z" transform="translate(-442.861)" fill="#fcba35"/>
        <path id="Path_427" data-name="Path 427" d="M338.209,3.492h7.284V0H334.57V6.985h3.639Z" transform="translate(-316.362)" fill="#fcba35"/>
      </g>
    </g>
  </g>
</svg>
